<?xml version="1.0" encoding="UTF-8" standalone="no"?>
<!DOCTYPE svg PUBLIC "-//W3C//DTD SVG 1.1//EN"
 "http://www.w3.org/Graphics/SVG/1.1/DTD/svg11.dtd">
<!-- Generated by graphviz version 2.34.0 (20131023.0619)
 -->
<!-- Title: REST::Session Pages: 1 -->
<!--zoomable 468 -->
<svg id="main" version="1.1" xmlns="http://www.w3.org/2000/svg" xmlns:xlink="http://www.w3.org/1999/xlink" xml:space="preserve" onload="init(evt)">
<style type="text/css"><![CDATA[
.edge:hover path { stroke: red; }
.edge:hover polygon { stroke: red; fill: red; }
]]></style>
<script type="text/javascript"><![CDATA[
var edges = document.getElementsByTagName('g');
if (edges && edges.length) {
  for (var i=0;i<edges.length;i++) {
    if (edges[i].id.substr(0,4)=='edge') {
      edges[i].setAttribute('class','edge');
    }
  }
}
]]></script>
        <defs>
                <circle id="rim" cx="0" cy="0" r="7"/>
                <circle id="rim2" cx="0" cy="0" r="3.5"/>
                <g id="zoomPlus">
                        <use xlink:href="#rim" fill="#404040">
                                <set attributeName="fill" to="#808080" begin="zoomplus.mouseover" end="zoomplus.mouseout"/>
                        </use>
                        <path d="M-4,0h8M0,-4v8" fill="none" stroke="white" stroke-width="1.5" pointer-events="none"/>
                </g>
                <g id="zoomMin">
                        <use xlink:href="#rim" fill="#404040">
                                <set attributeName="fill" to="#808080" begin="zoomminus.mouseover" end="zoomminus.mouseout"/>
                        </use>
                        <path d="M-4,0h8" fill="none" stroke="white" stroke-width="1.5" pointer-events="none"/>
                </g>
                <g id="dirArrow">
                        <path fill="none" stroke="white" stroke-width="1.5" d="M0,-3.0v7 M-2.5,-0.5L0,-3.0L2.5,-0.5"/>
                </g>
               <g id="resetDef">
                       <use xlink:href="#rim2" fill="#404040">
                               <set attributeName="fill" to="#808080" begin="reset.mouseover" end="reset.mouseout"/>
                       </use>
               </g>
        </defs>

<script type="text/javascript">
var viewWidth = 208;
var viewHeight = 468;
var sectionId = 'dynsection-0';
</script>
<script xlink:href="svgpan.js"/>
<svg id="graph" class="graph">
<g id="viewport">
<title>REST::Session</title>
<polygon fill="white" stroke="white" points="-4,4 -4,-464 204.275,-464 204.275,4 -4,4"/>
<!-- Node1 -->
<g id="node1" class="node"><title>Node1</title>
<polygon fill="#bfbfbf" stroke="black" points="50.6162,-0.8 50.6162,-111.2 127.384,-111.2 127.384,-0.8 50.6162,-0.8"/>
<text text-anchor="middle" x="89" y="-98.2" font-family="Helvetica,sans-Serif" font-size="9.00">REST::Session</text>
<polyline fill="none" stroke="black" points="50.6162,-92.4 127.384,-92.4 "/>
<text text-anchor="middle" x="89" y="-79.4" font-family="Helvetica,sans-Serif" font-size="9.00"> </text>
<polyline fill="none" stroke="black" points="50.6162,-73.6 127.384,-73.6 "/>
<text text-anchor="start" x="58.6162" y="-60.6" font-family="Helvetica,sans-Serif" font-size="9.00">+ Session()</text>
<text text-anchor="start" x="58.6162" y="-49.8" font-family="Helvetica,sans-Serif" font-size="9.00">+ ~Session()</text>
<text text-anchor="start" x="58.6162" y="-39" font-family="Helvetica,sans-Serif" font-size="9.00">+ Sessions()</text>
<text text-anchor="start" x="58.6162" y="-28.2" font-family="Helvetica,sans-Serif" font-size="9.00">+ getSession()</text>
<text text-anchor="start" x="58.6162" y="-17.4" font-family="Helvetica,sans-Serif" font-size="9.00">+ generateId()</text>
<text text-anchor="start" x="58.6162" y="-6.6" font-family="Helvetica,sans-Serif" font-size="9.00">+ killSessions()</text>
</g>
<!-- Node2 -->
<g id="node2" class="node"><title>Node2</title>
<polygon fill="white" stroke="#bfbfbf" points="39.1069,-160.4 39.1069,-227.6 138.893,-227.6 138.893,-160.4 39.1069,-160.4"/>
<text text-anchor="start" x="47.1069" y="-214.6" font-family="Helvetica,sans-Serif" font-size="9.00">std::map&lt; std::string,</text>
<text text-anchor="middle" x="89" y="-203.8" font-family="Helvetica,sans-Serif" font-size="9.00"> std::string &gt;</text>
<polyline fill="none" stroke="#bfbfbf" points="39.1069,-198 138.893,-198 "/>
<text text-anchor="middle" x="89" y="-185" font-family="Helvetica,sans-Serif" font-size="9.00"> </text>
<polyline fill="none" stroke="#bfbfbf" points="39.1069,-179.2 138.893,-179.2 "/>
<text text-anchor="middle" x="89" y="-166.2" font-family="Helvetica,sans-Serif" font-size="9.00"> </text>
</g>
<!-- Node2&#45;&gt;Node1 -->
<g id="edge1" class="edge"><title>Node2&#45;&gt;Node1</title>
<path fill="none" stroke="#404040" d="M89,-160.078C89,-148.998 89,-136.206 89,-123.484"/>
<polygon fill="none" stroke="#404040" points="89.0001,-123.368 85,-117.368 89,-111.368 93,-117.368 89.0001,-123.368"/>
<text text-anchor="middle" x="101.636" y="-132.4" font-family="Helvetica,sans-Serif" font-size="9.00"> +data</text>
</g>
<!-- Node3 -->
<g id="node3" class="node"><title>Node3</title>
<g id="a_node3"><a xlink:title="STL class. ">
<polygon fill="white" stroke="#bfbfbf" points="15.4927,-286.8 15.4927,-343.2 70.5073,-343.2 70.5073,-286.8 15.4927,-286.8"/>
<text text-anchor="middle" x="43" y="-330.2" font-family="Helvetica,sans-Serif" font-size="9.00">std::string</text>
<polyline fill="none" stroke="#bfbfbf" points="15.4927,-324.4 70.5073,-324.4 "/>
<text text-anchor="middle" x="43" y="-311.4" font-family="Helvetica,sans-Serif" font-size="9.00"> </text>
<polyline fill="none" stroke="#bfbfbf" points="15.4927,-305.6 70.5073,-305.6 "/>
<text text-anchor="middle" x="43" y="-292.6" font-family="Helvetica,sans-Serif" font-size="9.00"> </text>
</a>
</g>
</g>
<!-- Node3&#45;&gt;Node2 -->
<g id="edge2" class="edge"><title>Node3&#45;&gt;Node2</title>
<path fill="none" stroke="#404040" d="M47.8992,-286.649C50.6213,-274.018 54.5245,-258.978 59.7251,-246 60.7125,-243.536 61.8012,-241.047 62.9606,-238.562"/>
<polygon fill="none" stroke="#404040" points="62.9885,-238.507 62.1245,-231.348 68.4006,-227.797 69.2647,-234.956 62.9885,-238.507"/>
<text text-anchor="middle" x="82.1375" y="-258.8" font-family="Helvetica,sans-Serif" font-size="9.00"> +elements</text>
<text text-anchor="middle" x="82.1375" y="-248" font-family="Helvetica,sans-Serif" font-size="9.00">+keys</text>
</g>
<!-- Node4 -->
<g id="node4" class="node"><title>Node4</title>
<g id="a_node4"><a xlink:title="STL class. ">
<polygon fill="white" stroke="#bfbfbf" points="-0.143066,-392.4 -0.143066,-459.6 86.1431,-459.6 86.1431,-392.4 -0.143066,-392.4"/>
<text text-anchor="start" x="7.85693" y="-446.6" font-family="Helvetica,sans-Serif" font-size="9.00">std::basic_string&lt;</text>
<text text-anchor="middle" x="43" y="-435.8" font-family="Helvetica,sans-Serif" font-size="9.00"> char &gt;</text>
<polyline fill="none" stroke="#bfbfbf" points="-0.143066,-430 86.1431,-430 "/>
<text text-anchor="middle" x="43" y="-417" font-family="Helvetica,sans-Serif" font-size="9.00"> </text>
<polyline fill="none" stroke="#bfbfbf" points="-0.143066,-411.2 86.1431,-411.2 "/>
<text text-anchor="middle" x="43" y="-398.2" font-family="Helvetica,sans-Serif" font-size="9.00"> </text>
</a>
</g>
</g>
<!-- Node4&#45;&gt;Node3 -->
<g id="edge3" class="edge"><title>Node4&#45;&gt;Node3</title>
<path fill="none" stroke="midnightblue" d="M43,-382.137C43,-369.146 43,-355.231 43,-343.532"/>
<polygon fill="none" stroke="midnightblue" points="39.5001,-382.296 43,-392.296 46.5001,-382.296 39.5001,-382.296"/>
</g>
<!-- Node5 -->
<g id="node5" class="node"><title>Node5</title>
<g id="a_node5"><a xlink:title="STL class. ">
<polygon fill="white" stroke="#bfbfbf" points="88.8938,-286.8 88.8938,-343.2 171.106,-343.2 171.106,-286.8 88.8938,-286.8"/>
<text text-anchor="middle" x="130" y="-330.2" font-family="Helvetica,sans-Serif" font-size="9.00">std::map&lt; K, T &gt;</text>
<polyline fill="none" stroke="#bfbfbf" points="88.8938,-324.4 171.106,-324.4 "/>
<text text-anchor="middle" x="130" y="-311.4" font-family="Helvetica,sans-Serif" font-size="9.00"> </text>
<polyline fill="none" stroke="#bfbfbf" points="88.8938,-305.6 171.106,-305.6 "/>
<text text-anchor="middle" x="130" y="-292.6" font-family="Helvetica,sans-Serif" font-size="9.00"> </text>
</a>
</g>
</g>
<!-- Node5&#45;&gt;Node2 -->
<g id="edge4" class="edge"><title>Node5&#45;&gt;Node2</title>
<path fill="none" stroke="orange" d="M117.326,-277.216C111.871,-261.382 105.546,-243.022 100.258,-227.675"/>
<polygon fill="orange" stroke="orange" points="114.027,-278.385 120.594,-286.699 120.645,-276.104 114.027,-278.385"/>
<text text-anchor="start" x="114" y="-258.8" font-family="Helvetica,sans-Serif" font-size="9.00"> &lt; std::string, std</text>
<text text-anchor="middle" x="147.139" y="-248" font-family="Helvetica,sans-Serif" font-size="9.00">::string &gt;</text>
</g>
<!-- Node6 -->
<g id="node6" class="node"><title>Node6</title>
<polygon fill="white" stroke="#bfbfbf" points="109.5,-397.8 109.5,-454.2 138.5,-454.2 138.5,-397.8 109.5,-397.8"/>
<text text-anchor="middle" x="123.501" y="-441.2" font-family="Helvetica,sans-Serif" font-size="9.00">K</text>
<polyline fill="none" stroke="#bfbfbf" points="109.5,-435.4 137.503,-435.4 "/>
<text text-anchor="middle" x="123.501" y="-422.4" font-family="Helvetica,sans-Serif" font-size="9.00"> </text>
<polyline fill="none" stroke="#bfbfbf" points="109.5,-416.6 137.503,-416.6 "/>
<text text-anchor="middle" x="123.501" y="-403.6" font-family="Helvetica,sans-Serif" font-size="9.00"> </text>
</g>
<!-- Node6&#45;&gt;Node5 -->
<g id="edge5" class="edge"><title>Node6&#45;&gt;Node5</title>
<path fill="none" stroke="#404040" d="M123.713,-397.689C123.754,-386.603 124.004,-373.681 124.738,-362 124.876,-359.809 125.044,-357.562 125.235,-355.295"/>
<polygon fill="none" stroke="#404040" points="125.25,-355.144 121.855,-348.782 126.423,-343.202 129.817,-349.564 125.25,-355.144"/>
<text text-anchor="middle" x="138.131" y="-364.4" font-family="Helvetica,sans-Serif" font-size="9.00"> +keys</text>
</g>
<!-- Node7 -->
<g id="node7" class="node"><title>Node7</title>
<polygon fill="white" stroke="#bfbfbf" points="158.5,-397.8 158.5,-454.2 187.5,-454.2 187.5,-397.8 158.5,-397.8"/>
<text text-anchor="middle" x="172.749" y="-441.2" font-family="Helvetica,sans-Serif" font-size="9.00">T</text>
<polyline fill="none" stroke="#bfbfbf" points="158.5,-435.4 186.998,-435.4 "/>
<text text-anchor="middle" x="172.749" y="-422.4" font-family="Helvetica,sans-Serif" font-size="9.00"> </text>
<polyline fill="none" stroke="#bfbfbf" points="158.5,-416.6 186.998,-416.6 "/>
<text text-anchor="middle" x="172.749" y="-403.6" font-family="Helvetica,sans-Serif" font-size="9.00"> </text>
</g>
<!-- Node7&#45;&gt;Node5 -->
<g id="edge6" class="edge"><title>Node7&#45;&gt;Node5</title>
<path fill="none" stroke="#404040" d="M164.015,-397.507C160.224,-386.395 155.622,-373.502 151,-362 150.054,-359.645 149.053,-357.236 148.023,-354.814"/>
<polygon fill="none" stroke="#404040" points="147.902,-354.538 141.827,-350.653 143.077,-343.551 149.152,-347.436 147.902,-354.538"/>
<text text-anchor="middle" x="178.137" y="-364.4" font-family="Helvetica,sans-Serif" font-size="9.00"> +elements</text>
</g>
</g>
</svg>
        <g id="navigator" transform="translate(0 0)" fill="#404254">
                <rect fill="#f2f5e9" fill-opacity="0.5" stroke="#606060" stroke-width=".5" x="0" y="0" width="60" height="60"/>
                <use id="zoomplus" xlink:href="#zoomPlus" x="17" y="9" onmousedown="handleZoom(evt,'in')"/>
                <use id="zoomminus" xlink:href="#zoomMin" x="42" y="9" onmousedown="handleZoom(evt,'out')"/>
                <use id="reset" xlink:href="#resetDef" x="30" y="36" onmousedown="handleReset()"/>
                <g id="arrowUp" xlink:href="#dirArrow" transform="translate(30 24)" onmousedown="handlePan(0,-1)">
                  <use xlink:href="#rim" fill="#404040">
                        <set attributeName="fill" to="#808080" begin="arrowUp.mouseover" end="arrowUp.mouseout"/>
                  </use>
                  <path fill="none" stroke="white" stroke-width="1.5" d="M0,-3.0v7 M-2.5,-0.5L0,-3.0L2.5,-0.5"/>
                </g>
                <g id="arrowRight" xlink:href="#dirArrow" transform="rotate(90) translate(36 -43)" onmousedown="handlePan(1,0)">
                  <use xlink:href="#rim" fill="#404040">
                        <set attributeName="fill" to="#808080" begin="arrowRight.mouseover" end="arrowRight.mouseout"/>
                  </use>
                  <path fill="none" stroke="white" stroke-width="1.5" d="M0,-3.0v7 M-2.5,-0.5L0,-3.0L2.5,-0.5"/>
                </g>
                <g id="arrowDown" xlink:href="#dirArrow" transform="rotate(180) translate(-30 -48)" onmousedown="handlePan(0,1)">
                  <use xlink:href="#rim" fill="#404040">
                        <set attributeName="fill" to="#808080" begin="arrowDown.mouseover" end="arrowDown.mouseout"/>
                  </use>
                  <path fill="none" stroke="white" stroke-width="1.5" d="M0,-3.0v7 M-2.5,-0.5L0,-3.0L2.5,-0.5"/>
                </g>
                <g id="arrowLeft" xlink:href="#dirArrow" transform="rotate(270) translate(-36 17)" onmousedown="handlePan(-1,0)">
                  <use xlink:href="#rim" fill="#404040">
                        <set attributeName="fill" to="#808080" begin="arrowLeft.mouseover" end="arrowLeft.mouseout"/>
                  </use>
                  <path fill="none" stroke="white" stroke-width="1.5" d="M0,-3.0v7 M-2.5,-0.5L0,-3.0L2.5,-0.5"/>
                </g>
        </g>
        <svg viewBox="0 0 15 15" width="100%" height="30px" preserveAspectRatio="xMaxYMin meet">
         <g id="arrow_out" transform="scale(0.3 0.3)">
          <a xlink:href="class_r_e_s_t_1_1_session__coll__graph_org.svg" target="_base">
           <rect id="button" ry="5" rx="5" y="6" x="6" height="38" width="38"
                fill="#f2f5e9" fill-opacity="0.5" stroke="#606060" stroke-width="1.0"/>
           <path id="arrow"
             d="M 11.500037,31.436501 C 11.940474,20.09759 22.043105,11.32322 32.158766,21.979434 L 37.068811,17.246167 C 37.068811,17.246167 37.088388,32 37.088388,32 L 22.160133,31.978069 C 22.160133,31.978069 26.997745,27.140456 26.997745,27.140456 C 18.528582,18.264221 13.291696,25.230495 11.500037,31.436501 z"
             style="fill:#404040;"/>
          </a>
         </g>
        </svg>
</svg>
