<?xml version="1.0" encoding="UTF-8" standalone="no"?>
<!DOCTYPE svg PUBLIC "-//W3C//DTD SVG 1.1//EN"
 "http://www.w3.org/Graphics/SVG/1.1/DTD/svg11.dtd">
<!-- Generated by graphviz version 2.34.0 (20131023.0619)
 -->
<!-- Title: REST::Resource Pages: 1 -->
<!--zoomable 396 -->
<svg id="main" version="1.1" xmlns="http://www.w3.org/2000/svg" xmlns:xlink="http://www.w3.org/1999/xlink" xml:space="preserve" onload="init(evt)">
<style type="text/css"><![CDATA[
.edge:hover path { stroke: red; }
.edge:hover polygon { stroke: red; fill: red; }
]]></style>
<script type="text/javascript"><![CDATA[
var edges = document.getElementsByTagName('g');
if (edges && edges.length) {
  for (var i=0;i<edges.length;i++) {
    if (edges[i].id.substr(0,4)=='edge') {
      edges[i].setAttribute('class','edge');
    }
  }
}
]]></script>
        <defs>
                <circle id="rim" cx="0" cy="0" r="7"/>
                <circle id="rim2" cx="0" cy="0" r="3.5"/>
                <g id="zoomPlus">
                        <use xlink:href="#rim" fill="#404040">
                                <set attributeName="fill" to="#808080" begin="zoomplus.mouseover" end="zoomplus.mouseout"/>
                        </use>
                        <path d="M-4,0h8M0,-4v8" fill="none" stroke="white" stroke-width="1.5" pointer-events="none"/>
                </g>
                <g id="zoomMin">
                        <use xlink:href="#rim" fill="#404040">
                                <set attributeName="fill" to="#808080" begin="zoomminus.mouseover" end="zoomminus.mouseout"/>
                        </use>
                        <path d="M-4,0h8" fill="none" stroke="white" stroke-width="1.5" pointer-events="none"/>
                </g>
                <g id="dirArrow">
                        <path fill="none" stroke="white" stroke-width="1.5" d="M0,-3.0v7 M-2.5,-0.5L0,-3.0L2.5,-0.5"/>
                </g>
               <g id="resetDef">
                       <use xlink:href="#rim2" fill="#404040">
                               <set attributeName="fill" to="#808080" begin="reset.mouseover" end="reset.mouseout"/>
                       </use>
               </g>
        </defs>

<script type="text/javascript">
var viewWidth = 572;
var viewHeight = 396;
var sectionId = 'dynsection-1';
</script>
<script xlink:href="svgpan.js"/>
<svg id="graph" class="graph">
<g id="viewport">
<title>REST::Resource</title>
<polygon fill="white" stroke="white" points="-4,4 -4,-392 568,-392 568,4 -4,4"/>
<!-- Node1 -->
<g id="node1" class="node"><title>Node1</title>
<polygon fill="#bfbfbf" stroke="black" points="253.738,-0.8 253.738,-111.2 336.262,-111.2 336.262,-0.8 253.738,-0.8"/>
<text text-anchor="middle" x="295" y="-98.2" font-family="Helvetica,sans-Serif" font-size="9.00">REST::Resource</text>
<polyline fill="none" stroke="black" points="253.738,-92.4 336.262,-92.4 "/>
<text text-anchor="middle" x="295" y="-79.4" font-family="Helvetica,sans-Serif" font-size="9.00"> </text>
<polyline fill="none" stroke="black" points="253.738,-73.6 336.262,-73.6 "/>
<text text-anchor="start" x="261.738" y="-60.6" font-family="Helvetica,sans-Serif" font-size="9.00">+ create()</text>
<text text-anchor="start" x="261.738" y="-49.8" font-family="Helvetica,sans-Serif" font-size="9.00">+ read()</text>
<text text-anchor="start" x="261.738" y="-39" font-family="Helvetica,sans-Serif" font-size="9.00">+ update()</text>
<text text-anchor="start" x="261.738" y="-28.2" font-family="Helvetica,sans-Serif" font-size="9.00">+ destroy()</text>
<text text-anchor="start" x="261.738" y="-17.4" font-family="Helvetica,sans-Serif" font-size="9.00">+ ~Resource()</text>
<text text-anchor="start" x="261.738" y="-6.6" font-family="Helvetica,sans-Serif" font-size="9.00"># make_action()</text>
</g>
<!-- Node2 -->
<g id="node2" class="node"><title>Node2</title>
<g id="a_node2"><a xlink:href="class_r_e_s_t_1_1_service.html" target="_top" xlink:title="{REST::Service\n||+ Service()\l+ ensure_session()\l+ ensure_authorization()\l# make_action()\l# before()\l# after()\l# method()\l}">
<polygon fill="white" stroke="black" points="238.095,-150.4 238.095,-271.6 351.905,-271.6 351.905,-150.4 238.095,-150.4"/>
<text text-anchor="middle" x="295" y="-258.6" font-family="Helvetica,sans-Serif" font-size="9.00">REST::Service</text>
<polyline fill="none" stroke="black" points="238.095,-252.8 351.905,-252.8 "/>
<text text-anchor="middle" x="295" y="-239.8" font-family="Helvetica,sans-Serif" font-size="9.00"> </text>
<polyline fill="none" stroke="black" points="238.095,-234 351.905,-234 "/>
<text text-anchor="start" x="246.095" y="-221" font-family="Helvetica,sans-Serif" font-size="9.00">+ Service()</text>
<text text-anchor="start" x="246.095" y="-210.2" font-family="Helvetica,sans-Serif" font-size="9.00">+ ensure_session()</text>
<text text-anchor="start" x="246.095" y="-199.4" font-family="Helvetica,sans-Serif" font-size="9.00">+ ensure_authorization()</text>
<text text-anchor="start" x="246.095" y="-188.6" font-family="Helvetica,sans-Serif" font-size="9.00"># make_action()</text>
<text text-anchor="start" x="246.095" y="-177.8" font-family="Helvetica,sans-Serif" font-size="9.00"># before()</text>
<text text-anchor="start" x="246.095" y="-167" font-family="Helvetica,sans-Serif" font-size="9.00"># after()</text>
<text text-anchor="start" x="246.095" y="-156.2" font-family="Helvetica,sans-Serif" font-size="9.00"># method()</text>
</a>
</g>
</g>
<!-- Node2&#45;&gt;Node1 -->
<g id="edge1" class="edge"><title>Node2&#45;&gt;Node1</title>
<path fill="none" stroke="midnightblue" d="M295,-139.722C295,-130.206 295,-120.56 295,-111.38"/>
<polygon fill="none" stroke="midnightblue" points="291.5,-139.969 295,-149.969 298.5,-139.97 291.5,-139.969"/>
</g>
<!-- Node3 -->
<g id="node3" class="node"><title>Node3</title>
<polygon fill="white" stroke="#bfbfbf" points="-0.536133,-325.8 -0.536133,-382.2 142.536,-382.2 142.536,-325.8 -0.536133,-325.8"/>
<text text-anchor="middle" x="71" y="-369.2" font-family="Helvetica,sans-Serif" font-size="9.00">shared_ptr&lt; REST::Response &gt;</text>
<polyline fill="none" stroke="#bfbfbf" points="-0.536133,-363.4 142.536,-363.4 "/>
<text text-anchor="middle" x="71" y="-350.4" font-family="Helvetica,sans-Serif" font-size="9.00"> </text>
<polyline fill="none" stroke="#bfbfbf" points="-0.536133,-344.6 142.536,-344.6 "/>
<text text-anchor="middle" x="71" y="-331.6" font-family="Helvetica,sans-Serif" font-size="9.00"> </text>
</g>
<!-- Node3&#45;&gt;Node2 -->
<g id="edge2" class="edge"><title>Node3&#45;&gt;Node2</title>
<path fill="none" stroke="#404040" d="M114.455,-325.647C146.531,-305.456 190.794,-277.594 227.465,-254.511"/>
<polygon fill="none" stroke="#404040" points="227.928,-254.22 230.875,-247.638 238.083,-247.827 235.136,-254.409 227.928,-254.22"/>
<text text-anchor="middle" x="192.39" y="-292.4" font-family="Helvetica,sans-Serif" font-size="9.00"> +response</text>
</g>
<!-- Node4 -->
<g id="node4" class="node"><title>Node4</title>
<polygon fill="white" stroke="#bfbfbf" points="160.718,-325.8 160.718,-382.2 295.282,-382.2 295.282,-325.8 160.718,-325.8"/>
<text text-anchor="middle" x="228" y="-369.2" font-family="Helvetica,sans-Serif" font-size="9.00">shared_ptr&lt; REST::Session &gt;</text>
<polyline fill="none" stroke="#bfbfbf" points="160.718,-363.4 295.282,-363.4 "/>
<text text-anchor="middle" x="228" y="-350.4" font-family="Helvetica,sans-Serif" font-size="9.00"> </text>
<polyline fill="none" stroke="#bfbfbf" points="160.718,-344.6 295.282,-344.6 "/>
<text text-anchor="middle" x="228" y="-331.6" font-family="Helvetica,sans-Serif" font-size="9.00"> </text>
</g>
<!-- Node4&#45;&gt;Node2 -->
<g id="edge3" class="edge"><title>Node4&#45;&gt;Node2</title>
<path fill="none" stroke="#404040" d="M241.077,-325.479C246.93,-313.161 254.129,-298.013 261.337,-282.844"/>
<polygon fill="none" stroke="#404040" points="261.418,-282.673 260.38,-275.537 266.568,-271.834 267.606,-278.97 261.418,-282.673"/>
<text text-anchor="middle" x="277.011" y="-292.4" font-family="Helvetica,sans-Serif" font-size="9.00"> #session</text>
</g>
<!-- Node5 -->
<g id="node5" class="node"><title>Node5</title>
<polygon fill="white" stroke="#bfbfbf" points="313.603,-320.4 313.603,-387.6 410.397,-387.6 410.397,-320.4 313.603,-320.4"/>
<text text-anchor="start" x="321.603" y="-374.6" font-family="Helvetica,sans-Serif" font-size="9.00">shared_ptr&lt; params</text>
<text text-anchor="middle" x="362" y="-363.8" font-family="Helvetica,sans-Serif" font-size="9.00">_map &gt;</text>
<polyline fill="none" stroke="#bfbfbf" points="313.603,-358 410.397,-358 "/>
<text text-anchor="middle" x="362" y="-345" font-family="Helvetica,sans-Serif" font-size="9.00"> </text>
<polyline fill="none" stroke="#bfbfbf" points="313.603,-339.2 410.397,-339.2 "/>
<text text-anchor="middle" x="362" y="-326.2" font-family="Helvetica,sans-Serif" font-size="9.00"> </text>
</g>
<!-- Node5&#45;&gt;Node2 -->
<g id="edge4" class="edge"><title>Node5&#45;&gt;Node2</title>
<path fill="none" stroke="#404040" d="M346.46,-320.297C341.085,-308.984 334.833,-295.827 328.577,-282.663"/>
<polygon fill="none" stroke="#404040" points="328.491,-282.482 322.303,-278.779 323.341,-271.643 329.529,-275.346 328.491,-282.482"/>
<text text-anchor="middle" x="355.883" y="-292.4" font-family="Helvetica,sans-Serif" font-size="9.00"> +params</text>
</g>
<!-- Node6 -->
<g id="node6" class="node"><title>Node6</title>
<polygon fill="white" stroke="#bfbfbf" points="427.966,-325.8 427.966,-382.2 564.034,-382.2 564.034,-325.8 427.966,-325.8"/>
<text text-anchor="middle" x="496" y="-369.2" font-family="Helvetica,sans-Serif" font-size="9.00">shared_ptr&lt; REST::Request &gt;</text>
<polyline fill="none" stroke="#bfbfbf" points="427.966,-363.4 564.034,-363.4 "/>
<text text-anchor="middle" x="496" y="-350.4" font-family="Helvetica,sans-Serif" font-size="9.00"> </text>
<polyline fill="none" stroke="#bfbfbf" points="427.966,-344.6 564.034,-344.6 "/>
<text text-anchor="middle" x="496" y="-331.6" font-family="Helvetica,sans-Serif" font-size="9.00"> </text>
</g>
<!-- Node6&#45;&gt;Node2 -->
<g id="edge5" class="edge"><title>Node6&#45;&gt;Node2</title>
<path fill="none" stroke="#404040" d="M456.768,-325.479C429.861,-306.604 393.48,-281.083 362.034,-259.024"/>
<polygon fill="none" stroke="#404040" points="361.84,-258.888 354.631,-258.717 352.016,-251.996 359.225,-252.167 361.84,-258.888"/>
<text text-anchor="middle" x="438.888" y="-292.4" font-family="Helvetica,sans-Serif" font-size="9.00"> +request</text>
</g>
</g>
</svg>
        <g id="navigator" transform="translate(0 0)" fill="#404254">
                <rect fill="#f2f5e9" fill-opacity="0.5" stroke="#606060" stroke-width=".5" x="0" y="0" width="60" height="60"/>
                <use id="zoomplus" xlink:href="#zoomPlus" x="17" y="9" onmousedown="handleZoom(evt,'in')"/>
                <use id="zoomminus" xlink:href="#zoomMin" x="42" y="9" onmousedown="handleZoom(evt,'out')"/>
                <use id="reset" xlink:href="#resetDef" x="30" y="36" onmousedown="handleReset()"/>
                <g id="arrowUp" xlink:href="#dirArrow" transform="translate(30 24)" onmousedown="handlePan(0,-1)">
                  <use xlink:href="#rim" fill="#404040">
                        <set attributeName="fill" to="#808080" begin="arrowUp.mouseover" end="arrowUp.mouseout"/>
                  </use>
                  <path fill="none" stroke="white" stroke-width="1.5" d="M0,-3.0v7 M-2.5,-0.5L0,-3.0L2.5,-0.5"/>
                </g>
                <g id="arrowRight" xlink:href="#dirArrow" transform="rotate(90) translate(36 -43)" onmousedown="handlePan(1,0)">
                  <use xlink:href="#rim" fill="#404040">
                        <set attributeName="fill" to="#808080" begin="arrowRight.mouseover" end="arrowRight.mouseout"/>
                  </use>
                  <path fill="none" stroke="white" stroke-width="1.5" d="M0,-3.0v7 M-2.5,-0.5L0,-3.0L2.5,-0.5"/>
                </g>
                <g id="arrowDown" xlink:href="#dirArrow" transform="rotate(180) translate(-30 -48)" onmousedown="handlePan(0,1)">
                  <use xlink:href="#rim" fill="#404040">
                        <set attributeName="fill" to="#808080" begin="arrowDown.mouseover" end="arrowDown.mouseout"/>
                  </use>
                  <path fill="none" stroke="white" stroke-width="1.5" d="M0,-3.0v7 M-2.5,-0.5L0,-3.0L2.5,-0.5"/>
                </g>
                <g id="arrowLeft" xlink:href="#dirArrow" transform="rotate(270) translate(-36 17)" onmousedown="handlePan(-1,0)">
                  <use xlink:href="#rim" fill="#404040">
                        <set attributeName="fill" to="#808080" begin="arrowLeft.mouseover" end="arrowLeft.mouseout"/>
                  </use>
                  <path fill="none" stroke="white" stroke-width="1.5" d="M0,-3.0v7 M-2.5,-0.5L0,-3.0L2.5,-0.5"/>
                </g>
        </g>
        <svg viewBox="0 0 15 15" width="100%" height="30px" preserveAspectRatio="xMaxYMin meet">
         <g id="arrow_out" transform="scale(0.3 0.3)">
          <a xlink:href="class_r_e_s_t_1_1_resource__coll__graph_org.svg" target="_base">
           <rect id="button" ry="5" rx="5" y="6" x="6" height="38" width="38"
                fill="#f2f5e9" fill-opacity="0.5" stroke="#606060" stroke-width="1.0"/>
           <path id="arrow"
             d="M 11.500037,31.436501 C 11.940474,20.09759 22.043105,11.32322 32.158766,21.979434 L 37.068811,17.246167 C 37.068811,17.246167 37.088388,32 37.088388,32 L 22.160133,31.978069 C 22.160133,31.978069 26.997745,27.140456 26.997745,27.140456 C 18.528582,18.264221 13.291696,25.230495 11.500037,31.436501 z"
             style="fill:#404040;"/>
          </a>
         </g>
        </svg>
</svg>
