<?xml version="1.0" encoding="UTF-8" standalone="no"?>
<!DOCTYPE svg PUBLIC "-//W3C//DTD SVG 1.1//EN"
 "http://www.w3.org/Graphics/SVG/1.1/DTD/svg11.dtd">
<!-- Generated by graphviz version 2.34.0 (20131023.0619)
 -->
<!-- Title: REST::Request Pages: 1 -->
<svg width="947pt" height="446pt"
 viewBox="0.00 0.00 947.00 446.00" xmlns="http://www.w3.org/2000/svg" xmlns:xlink="http://www.w3.org/1999/xlink">
<g id="graph0" class="graph" transform="scale(1 1) rotate(0) translate(4 442)">
<title>REST::Request</title>
<polygon fill="white" stroke="white" points="-4,4 -4,-442 943,-442 943,4 -4,4"/>
<!-- Node1 -->
<g id="node1" class="node"><title>Node1</title>
<polygon fill="#bfbfbf" stroke="black" points="428.236,-0.6 428.236,-89.4 505.764,-89.4 505.764,-0.6 428.236,-0.6"/>
<text text-anchor="middle" x="467" y="-76.4" font-family="Helvetica,sans-Serif" font-size="9.00">REST::Request</text>
<polyline fill="none" stroke="black" points="428.236,-70.6 505.764,-70.6 "/>
<text text-anchor="middle" x="467" y="-57.6" font-family="Helvetica,sans-Serif" font-size="9.00"> </text>
<polyline fill="none" stroke="black" points="428.236,-51.8 505.764,-51.8 "/>
<text text-anchor="start" x="436.236" y="-38.8" font-family="Helvetica,sans-Serif" font-size="9.00">+ Request()</text>
<text text-anchor="start" x="436.236" y="-28" font-family="Helvetica,sans-Serif" font-size="9.00">+ ~Request()</text>
<text text-anchor="start" x="436.236" y="-17.2" font-family="Helvetica,sans-Serif" font-size="9.00">+ header()</text>
<text text-anchor="start" x="436.236" y="-6.4" font-family="Helvetica,sans-Serif" font-size="9.00">+ parameter()</text>
</g>
<!-- Node2 -->
<g id="node2" class="node"><title>Node2</title>
<polygon fill="white" stroke="#bfbfbf" points="-0.139404,-138.4 -0.139404,-205.6 80.1394,-205.6 80.1394,-138.4 -0.139404,-138.4"/>
<text text-anchor="start" x="7.8606" y="-192.6" font-family="Helvetica,sans-Serif" font-size="9.00">pair&lt; std::string,</text>
<text text-anchor="middle" x="40" y="-181.8" font-family="Helvetica,sans-Serif" font-size="9.00"> std::string &gt;</text>
<polyline fill="none" stroke="#bfbfbf" points="-0.139404,-176 80.1394,-176 "/>
<text text-anchor="middle" x="40" y="-163" font-family="Helvetica,sans-Serif" font-size="9.00"> </text>
<polyline fill="none" stroke="#bfbfbf" points="-0.139404,-157.2 80.1394,-157.2 "/>
<text text-anchor="middle" x="40" y="-144.2" font-family="Helvetica,sans-Serif" font-size="9.00"> </text>
</g>
<!-- Node2&#45;&gt;Node1 -->
<g id="edge1" class="edge"><title>Node2&#45;&gt;Node1</title>
<path fill="none" stroke="#404040" d="M75.9752,-138.098C89.966,-126.938 106.708,-115.428 123.709,-108 221.278,-65.3704 346.74,-52.0517 415.769,-47.8907"/>
<polygon fill="none" stroke="#404040" points="416,-47.878 421.77,-43.5527 427.982,-47.2153 422.212,-51.5405 416,-47.878"/>
<text text-anchor="middle" x="153.646" y="-110.4" font-family="Helvetica,sans-Serif" font-size="9.00"> +authorization</text>
</g>
<!-- Node3 -->
<g id="node3" class="node"><title>Node3</title>
<polygon fill="white" stroke="#bfbfbf" points="97.9905,-143.8 97.9905,-200.2 144.01,-200.2 144.01,-143.8 97.9905,-143.8"/>
<text text-anchor="middle" x="121" y="-187.2" font-family="Helvetica,sans-Serif" font-size="9.00">Method</text>
<polyline fill="none" stroke="#bfbfbf" points="97.9905,-181.4 144.01,-181.4 "/>
<text text-anchor="middle" x="121" y="-168.4" font-family="Helvetica,sans-Serif" font-size="9.00"> </text>
<polyline fill="none" stroke="#bfbfbf" points="97.9905,-162.6 144.01,-162.6 "/>
<text text-anchor="middle" x="121" y="-149.6" font-family="Helvetica,sans-Serif" font-size="9.00"> </text>
</g>
<!-- Node3&#45;&gt;Node1 -->
<g id="edge2" class="edge"><title>Node3&#45;&gt;Node1</title>
<path fill="none" stroke="#404040" d="M144.165,-145.012C147.004,-142.477 149.975,-140.08 153,-138 180.968,-118.773 191.077,-118.882 223.225,-108 288.622,-85.8631 366.221,-67.4216 416.007,-56.5543"/>
<polygon fill="none" stroke="#404040" points="416.311,-56.4887 421.332,-51.3128 428.041,-53.9569 423.02,-59.1328 416.311,-56.4887"/>
<text text-anchor="middle" x="242.888" y="-110.4" font-family="Helvetica,sans-Serif" font-size="9.00"> +method</text>
</g>
<!-- Node4 -->
<g id="node4" class="node"><title>Node4</title>
<polygon fill="white" stroke="#bfbfbf" points="161.547,-143.8 161.547,-200.2 282.453,-200.2 282.453,-143.8 161.547,-143.8"/>
<text text-anchor="middle" x="222" y="-187.2" font-family="Helvetica,sans-Serif" font-size="9.00">shared_ptr&lt; Json::Value &gt;</text>
<polyline fill="none" stroke="#bfbfbf" points="161.547,-181.4 282.453,-181.4 "/>
<text text-anchor="middle" x="222" y="-168.4" font-family="Helvetica,sans-Serif" font-size="9.00"> </text>
<polyline fill="none" stroke="#bfbfbf" points="161.547,-162.6 282.453,-162.6 "/>
<text text-anchor="middle" x="222" y="-149.6" font-family="Helvetica,sans-Serif" font-size="9.00"> </text>
</g>
<!-- Node4&#45;&gt;Node1 -->
<g id="edge3" class="edge"><title>Node4&#45;&gt;Node1</title>
<path fill="none" stroke="#404040" d="M241.254,-143.77C251.215,-131.375 264.304,-117.407 278.727,-108 320.914,-80.485 376.402,-64.1662 416.193,-55.2351"/>
<polygon fill="none" stroke="#404040" points="416.273,-55.2179 421.299,-50.0464 428.005,-52.6964 422.98,-57.8678 416.273,-55.2179"/>
<text text-anchor="middle" x="291.636" y="-110.4" font-family="Helvetica,sans-Serif" font-size="9.00"> +data</text>
</g>
<!-- Node5 -->
<g id="node5" class="node"><title>Node5</title>
<polygon fill="white" stroke="#bfbfbf" points="763.61,-138.4 763.61,-205.6 858.39,-205.6 858.39,-138.4 763.61,-138.4"/>
<text text-anchor="start" x="771.61" y="-192.6" font-family="Helvetica,sans-Serif" font-size="9.00">std::multimap&lt; std</text>
<text text-anchor="middle" x="811" y="-181.8" font-family="Helvetica,sans-Serif" font-size="9.00">::string, std::string &gt;</text>
<polyline fill="none" stroke="#bfbfbf" points="763.61,-176 858.39,-176 "/>
<text text-anchor="middle" x="811" y="-163" font-family="Helvetica,sans-Serif" font-size="9.00"> </text>
<polyline fill="none" stroke="#bfbfbf" points="763.61,-157.2 858.39,-157.2 "/>
<text text-anchor="middle" x="811" y="-144.2" font-family="Helvetica,sans-Serif" font-size="9.00"> </text>
</g>
<!-- Node5&#45;&gt;Node1 -->
<g id="edge4" class="edge"><title>Node5&#45;&gt;Node1</title>
<path fill="none" stroke="#404040" d="M763.496,-142.505C760.319,-140.909 757.136,-139.391 754,-138 674.071,-102.545 576.196,-74.1751 517.865,-58.7486"/>
<polygon fill="none" stroke="#404040" points="517.648,-58.692 510.831,-61.0435 506.038,-55.6554 512.855,-53.3039 517.648,-58.692"/>
<text text-anchor="middle" x="729.14" y="-110.4" font-family="Helvetica,sans-Serif" font-size="9.00"> +headers</text>
</g>
<!-- Node6 -->
<g id="node6" class="node"><title>Node6</title>
<g id="a_node6"><a xlink:title="STL class. ">
<polygon fill="white" stroke="#bfbfbf" points="381.493,-264.8 381.493,-321.2 436.507,-321.2 436.507,-264.8 381.493,-264.8"/>
<text text-anchor="middle" x="409" y="-308.2" font-family="Helvetica,sans-Serif" font-size="9.00">std::string</text>
<polyline fill="none" stroke="#bfbfbf" points="381.493,-302.4 436.507,-302.4 "/>
<text text-anchor="middle" x="409" y="-289.4" font-family="Helvetica,sans-Serif" font-size="9.00"> </text>
<polyline fill="none" stroke="#bfbfbf" points="381.493,-283.6 436.507,-283.6 "/>
<text text-anchor="middle" x="409" y="-270.6" font-family="Helvetica,sans-Serif" font-size="9.00"> </text>
</a>
</g>
</g>
<!-- Node6&#45;&gt;Node1 -->
<g id="edge18" class="edge"><title>Node6&#45;&gt;Node1</title>
<path fill="none" stroke="#404040" d="M381.252,-272.189C362.054,-256.656 338.082,-233.168 327.228,-206 316.015,-177.935 312.889,-164.604 327.228,-138 346.132,-102.925 384.901,-79.0258 416.822,-64.3953"/>
<polygon fill="none" stroke="#404040" points="417.225,-64.2197 421.124,-58.1541 428.223,-59.4209 424.324,-65.4866 417.225,-64.2197"/>
<text text-anchor="middle" x="339.386" y="-173.8" font-family="Helvetica,sans-Serif" font-size="9.00"> +raw</text>
<text text-anchor="middle" x="339.386" y="-163" font-family="Helvetica,sans-Serif" font-size="9.00">+path</text>
</g>
<!-- Node6&#45;&gt;Node5 -->
<g id="edge5" class="edge"><title>Node6&#45;&gt;Node5</title>
<path fill="none" stroke="#404040" d="M436.611,-269.427C457.523,-253.712 487.691,-233.869 517.725,-224 614.162,-192.312 650.743,-233.941 751.851,-205.959"/>
<polygon fill="none" stroke="#404040" points="751.994,-205.917 756.612,-200.378 763.5,-202.511 758.882,-208.049 751.994,-205.917"/>
<text text-anchor="middle" x="540.137" y="-236.8" font-family="Helvetica,sans-Serif" font-size="9.00"> +elements</text>
<text text-anchor="middle" x="540.137" y="-226" font-family="Helvetica,sans-Serif" font-size="9.00">+keys</text>
</g>
<!-- Node14 -->
<g id="node14" class="node"><title>Node14</title>
<polygon fill="white" stroke="#bfbfbf" points="359.107,-138.4 359.107,-205.6 458.893,-205.6 458.893,-138.4 359.107,-138.4"/>
<text text-anchor="start" x="367.107" y="-192.6" font-family="Helvetica,sans-Serif" font-size="9.00">std::map&lt; std::string,</text>
<text text-anchor="middle" x="409" y="-181.8" font-family="Helvetica,sans-Serif" font-size="9.00"> std::string &gt;</text>
<polyline fill="none" stroke="#bfbfbf" points="359.107,-176 458.893,-176 "/>
<text text-anchor="middle" x="409" y="-163" font-family="Helvetica,sans-Serif" font-size="9.00"> </text>
<polyline fill="none" stroke="#bfbfbf" points="359.107,-157.2 458.893,-157.2 "/>
<text text-anchor="middle" x="409" y="-144.2" font-family="Helvetica,sans-Serif" font-size="9.00"> </text>
</g>
<!-- Node6&#45;&gt;Node14 -->
<g id="edge14" class="edge"><title>Node6&#45;&gt;Node14</title>
<path fill="none" stroke="#404040" d="M409,-264.699C409,-250.838 409,-233.641 409,-217.897"/>
<polygon fill="none" stroke="#404040" points="409,-217.675 405,-211.675 409,-205.675 413,-211.675 409,-217.675"/>
<text text-anchor="middle" x="431.137" y="-236.8" font-family="Helvetica,sans-Serif" font-size="9.00"> +elements</text>
<text text-anchor="middle" x="431.137" y="-226" font-family="Helvetica,sans-Serif" font-size="9.00">+keys</text>
</g>
<!-- Node7 -->
<g id="node7" class="node"><title>Node7</title>
<g id="a_node7"><a xlink:title="STL class. ">
<polygon fill="white" stroke="#bfbfbf" points="365.857,-370.4 365.857,-437.6 452.143,-437.6 452.143,-370.4 365.857,-370.4"/>
<text text-anchor="start" x="373.857" y="-424.6" font-family="Helvetica,sans-Serif" font-size="9.00">std::basic_string&lt;</text>
<text text-anchor="middle" x="409" y="-413.8" font-family="Helvetica,sans-Serif" font-size="9.00"> char &gt;</text>
<polyline fill="none" stroke="#bfbfbf" points="365.857,-408 452.143,-408 "/>
<text text-anchor="middle" x="409" y="-395" font-family="Helvetica,sans-Serif" font-size="9.00"> </text>
<polyline fill="none" stroke="#bfbfbf" points="365.857,-389.2 452.143,-389.2 "/>
<text text-anchor="middle" x="409" y="-376.2" font-family="Helvetica,sans-Serif" font-size="9.00"> </text>
</a>
</g>
</g>
<!-- Node7&#45;&gt;Node6 -->
<g id="edge6" class="edge"><title>Node7&#45;&gt;Node6</title>
<path fill="none" stroke="midnightblue" d="M409,-360.137C409,-347.146 409,-333.231 409,-321.532"/>
<polygon fill="none" stroke="midnightblue" points="405.5,-360.296 409,-370.296 412.5,-360.296 405.5,-360.296"/>
</g>
<!-- Node8 -->
<g id="node8" class="node"><title>Node8</title>
<g id="a_node8"><a xlink:title="STL class. ">
<polygon fill="white" stroke="#bfbfbf" points="749.393,-264.8 749.393,-321.2 850.607,-321.2 850.607,-264.8 749.393,-264.8"/>
<text text-anchor="middle" x="800" y="-308.2" font-family="Helvetica,sans-Serif" font-size="9.00">std::multimap&lt; K, T &gt;</text>
<polyline fill="none" stroke="#bfbfbf" points="749.393,-302.4 850.607,-302.4 "/>
<text text-anchor="middle" x="800" y="-289.4" font-family="Helvetica,sans-Serif" font-size="9.00"> </text>
<polyline fill="none" stroke="#bfbfbf" points="749.393,-283.6 850.607,-283.6 "/>
<text text-anchor="middle" x="800" y="-270.6" font-family="Helvetica,sans-Serif" font-size="9.00"> </text>
</a>
</g>
</g>
<!-- Node8&#45;&gt;Node5 -->
<g id="edge7" class="edge"><title>Node8&#45;&gt;Node5</title>
<path fill="none" stroke="orange" d="M803.483,-254.317C804.928,-238.69 806.588,-220.733 807.98,-205.675"/>
<polygon fill="orange" stroke="orange" points="799.959,-254.419 802.524,-264.699 806.929,-255.064 799.959,-254.419"/>
<text text-anchor="start" x="807" y="-236.8" font-family="Helvetica,sans-Serif" font-size="9.00"> &lt; std::string, std</text>
<text text-anchor="middle" x="840.139" y="-226" font-family="Helvetica,sans-Serif" font-size="9.00">::string &gt;</text>
</g>
<!-- Node9 -->
<g id="node9" class="node"><title>Node9</title>
<polygon fill="white" stroke="#bfbfbf" points="760.5,-375.8 760.5,-432.2 789.5,-432.2 789.5,-375.8 760.5,-375.8"/>
<text text-anchor="middle" x="774.501" y="-419.2" font-family="Helvetica,sans-Serif" font-size="9.00">K</text>
<polyline fill="none" stroke="#bfbfbf" points="760.5,-413.4 788.503,-413.4 "/>
<text text-anchor="middle" x="774.501" y="-400.4" font-family="Helvetica,sans-Serif" font-size="9.00"> </text>
<polyline fill="none" stroke="#bfbfbf" points="760.5,-394.6 788.503,-394.6 "/>
<text text-anchor="middle" x="774.501" y="-381.6" font-family="Helvetica,sans-Serif" font-size="9.00"> </text>
</g>
<!-- Node9&#45;&gt;Node8 -->
<g id="edge8" class="edge"><title>Node9&#45;&gt;Node8</title>
<path fill="none" stroke="#404040" d="M781.244,-375.776C784.197,-362.9 787.778,-347.289 791.016,-333.171"/>
<polygon fill="none" stroke="#404040" points="791.066,-332.951 788.509,-326.209 793.749,-321.255 796.306,-327.997 791.066,-332.951"/>
<text text-anchor="middle" x="802.131" y="-342.4" font-family="Helvetica,sans-Serif" font-size="9.00"> +keys</text>
</g>
<!-- Node15 -->
<g id="node15" class="node"><title>Node15</title>
<g id="a_node15"><a xlink:title="STL class. ">
<polygon fill="white" stroke="#bfbfbf" points="575.894,-264.8 575.894,-321.2 658.106,-321.2 658.106,-264.8 575.894,-264.8"/>
<text text-anchor="middle" x="617" y="-308.2" font-family="Helvetica,sans-Serif" font-size="9.00">std::map&lt; K, T &gt;</text>
<polyline fill="none" stroke="#bfbfbf" points="575.894,-302.4 658.106,-302.4 "/>
<text text-anchor="middle" x="617" y="-289.4" font-family="Helvetica,sans-Serif" font-size="9.00"> </text>
<polyline fill="none" stroke="#bfbfbf" points="575.894,-283.6 658.106,-283.6 "/>
<text text-anchor="middle" x="617" y="-270.6" font-family="Helvetica,sans-Serif" font-size="9.00"> </text>
</a>
</g>
</g>
<!-- Node9&#45;&gt;Node15 -->
<g id="edge16" class="edge"><title>Node9&#45;&gt;Node15</title>
<path fill="none" stroke="#404040" d="M760.475,-376.726C752.514,-364.256 741.683,-349.943 729,-340 711.576,-326.339 689.53,-316.133 669.616,-308.851"/>
<polygon fill="none" stroke="#404040" points="669.528,-308.82 662.55,-310.639 658.187,-304.897 665.165,-303.078 669.528,-308.82"/>
<text text-anchor="middle" x="755.131" y="-342.4" font-family="Helvetica,sans-Serif" font-size="9.00"> +keys</text>
</g>
<!-- Node10 -->
<g id="node10" class="node"><title>Node10</title>
<polygon fill="white" stroke="#bfbfbf" points="636.5,-375.8 636.5,-432.2 665.5,-432.2 665.5,-375.8 636.5,-375.8"/>
<text text-anchor="middle" x="650.749" y="-419.2" font-family="Helvetica,sans-Serif" font-size="9.00">T</text>
<polyline fill="none" stroke="#bfbfbf" points="636.5,-413.4 664.998,-413.4 "/>
<text text-anchor="middle" x="650.749" y="-400.4" font-family="Helvetica,sans-Serif" font-size="9.00"> </text>
<polyline fill="none" stroke="#bfbfbf" points="636.5,-394.6 664.998,-394.6 "/>
<text text-anchor="middle" x="650.749" y="-381.6" font-family="Helvetica,sans-Serif" font-size="9.00"> </text>
</g>
<!-- Node10&#45;&gt;Node8 -->
<g id="edge9" class="edge"><title>Node10&#45;&gt;Node8</title>
<path fill="none" stroke="#404040" d="M660.601,-375.689C666.066,-363.426 673.996,-349.591 684.725,-340 699.758,-326.561 719.203,-316.801 737.827,-309.825"/>
<polygon fill="none" stroke="#404040" points="737.939,-309.786 742.287,-304.033 749.269,-305.834 744.922,-311.587 737.939,-309.786"/>
<text text-anchor="middle" x="707.137" y="-342.4" font-family="Helvetica,sans-Serif" font-size="9.00"> +elements</text>
</g>
<!-- Node10&#45;&gt;Node15 -->
<g id="edge17" class="edge"><title>Node10&#45;&gt;Node15</title>
<path fill="none" stroke="#404040" d="M636.279,-385.851C629.212,-376.501 621.479,-364.34 617.725,-352 615.968,-346.222 614.994,-339.969 614.533,-333.78"/>
<polygon fill="none" stroke="#404040" points="614.522,-333.334 610.372,-327.437 614.22,-321.338 618.37,-327.236 614.522,-333.334"/>
<text text-anchor="middle" x="640.137" y="-342.4" font-family="Helvetica,sans-Serif" font-size="9.00"> +elements</text>
</g>
<!-- Node11 -->
<g id="node11" class="node"><title>Node11</title>
<polygon fill="white" stroke="#bfbfbf" points="477.238,-143.8 477.238,-200.2 534.762,-200.2 534.762,-143.8 477.238,-143.8"/>
<text text-anchor="middle" x="506" y="-187.2" font-family="Helvetica,sans-Serif" font-size="9.00">time_point</text>
<polyline fill="none" stroke="#bfbfbf" points="477.238,-181.4 534.762,-181.4 "/>
<text text-anchor="middle" x="506" y="-168.4" font-family="Helvetica,sans-Serif" font-size="9.00"> </text>
<polyline fill="none" stroke="#bfbfbf" points="477.238,-162.6 534.762,-162.6 "/>
<text text-anchor="middle" x="506" y="-149.6" font-family="Helvetica,sans-Serif" font-size="9.00"> </text>
</g>
<!-- Node11&#45;&gt;Node1 -->
<g id="edge10" class="edge"><title>Node11&#45;&gt;Node1</title>
<path fill="none" stroke="#404040" d="M497.441,-143.568C493.549,-131.093 488.797,-115.861 484.215,-101.176"/>
<polygon fill="none" stroke="#404040" points="484.171,-101.034 478.565,-96.4982 480.597,-89.5791 486.202,-94.1154 484.171,-101.034"/>
<text text-anchor="middle" x="502.379" y="-110.4" font-family="Helvetica,sans-Serif" font-size="9.00"> +time</text>
</g>
<!-- Node12 -->
<g id="node12" class="node"><title>Node12</title>
<polygon fill="white" stroke="#bfbfbf" points="553.245,-143.8 553.245,-200.2 592.755,-200.2 592.755,-143.8 553.245,-143.8"/>
<text text-anchor="middle" x="573" y="-187.2" font-family="Helvetica,sans-Serif" font-size="9.00">size_t</text>
<polyline fill="none" stroke="#bfbfbf" points="553.245,-181.4 592.755,-181.4 "/>
<text text-anchor="middle" x="573" y="-168.4" font-family="Helvetica,sans-Serif" font-size="9.00"> </text>
<polyline fill="none" stroke="#bfbfbf" points="553.245,-162.6 592.755,-162.6 "/>
<text text-anchor="middle" x="573" y="-149.6" font-family="Helvetica,sans-Serif" font-size="9.00"> </text>
</g>
<!-- Node12&#45;&gt;Node1 -->
<g id="edge11" class="edge"><title>Node12&#45;&gt;Node1</title>
<path fill="none" stroke="#404040" d="M553.062,-147.488C541.424,-133.764 526.244,-115.863 511.88,-98.9241"/>
<polygon fill="none" stroke="#404040" points="511.772,-98.7972 504.841,-96.8081 504.011,-89.6449 510.942,-91.634 511.772,-98.7972"/>
<text text-anchor="middle" x="546.139" y="-110.4" font-family="Helvetica,sans-Serif" font-size="9.00"> +length</text>
</g>
<!-- Node13 -->
<g id="node13" class="node"><title>Node13</title>
<polygon fill="white" stroke="#bfbfbf" points="610.718,-143.8 610.718,-200.2 745.282,-200.2 745.282,-143.8 610.718,-143.8"/>
<text text-anchor="middle" x="678" y="-187.2" font-family="Helvetica,sans-Serif" font-size="9.00">shared_ptr&lt; REST::Session &gt;</text>
<polyline fill="none" stroke="#bfbfbf" points="610.718,-181.4 745.282,-181.4 "/>
<text text-anchor="middle" x="678" y="-168.4" font-family="Helvetica,sans-Serif" font-size="9.00"> </text>
<polyline fill="none" stroke="#bfbfbf" points="610.718,-162.6 745.282,-162.6 "/>
<text text-anchor="middle" x="678" y="-149.6" font-family="Helvetica,sans-Serif" font-size="9.00"> </text>
</g>
<!-- Node13&#45;&gt;Node1 -->
<g id="edge12" class="edge"><title>Node13&#45;&gt;Node1</title>
<path fill="none" stroke="#404040" d="M631.956,-143.723C597.78,-123.476 551.244,-95.9078 516.313,-75.2138"/>
<polygon fill="none" stroke="#404040" points="516.195,-75.1442 508.994,-75.5275 505.871,-69.0279 513.072,-68.6446 516.195,-75.1442"/>
<text text-anchor="middle" x="611.136" y="-110.4" font-family="Helvetica,sans-Serif" font-size="9.00"> +session</text>
</g>
<!-- Node14&#45;&gt;Node1 -->
<g id="edge13" class="edge"><title>Node14&#45;&gt;Node1</title>
<path fill="none" stroke="#404040" d="M418.292,-138.094C421.481,-128.24 425.361,-117.526 429.725,-108 430.851,-105.541 432.052,-103.058 433.306,-100.571"/>
<polygon fill="none" stroke="#404040" points="433.448,-100.305 432.736,-93.1289 439.086,-89.712 439.798,-96.8879 433.448,-100.305"/>
<text text-anchor="middle" x="456.637" y="-110.4" font-family="Helvetica,sans-Serif" font-size="9.00"> +parameters</text>
</g>
<!-- Node15&#45;&gt;Node14 -->
<g id="edge15" class="edge"><title>Node15&#45;&gt;Node14</title>
<path fill="none" stroke="orange" d="M597.582,-256.17C589.365,-244.182 578.721,-231.877 566,-224 528.351,-200.685 509.663,-221.011 468,-206 465.019,-204.926 462.01,-203.711 459.013,-202.398"/>
<polygon fill="orange" stroke="orange" points="594.771,-258.269 603.132,-264.777 600.654,-254.476 594.771,-258.269"/>
<text text-anchor="start" x="590" y="-236.8" font-family="Helvetica,sans-Serif" font-size="9.00"> &lt; std::string, std</text>
<text text-anchor="middle" x="623.139" y="-226" font-family="Helvetica,sans-Serif" font-size="9.00">::string &gt;</text>
</g>
<!-- Node16 -->
<g id="node16" class="node"><title>Node16</title>
<polygon fill="white" stroke="#bfbfbf" points="876.491,-143.8 876.491,-200.2 939.509,-200.2 939.509,-143.8 876.491,-143.8"/>
<text text-anchor="middle" x="908" y="-187.2" font-family="Helvetica,sans-Serif" font-size="9.00">static size_t</text>
<polyline fill="none" stroke="#bfbfbf" points="876.491,-181.4 939.509,-181.4 "/>
<text text-anchor="middle" x="908" y="-168.4" font-family="Helvetica,sans-Serif" font-size="9.00"> </text>
<polyline fill="none" stroke="#bfbfbf" points="876.491,-162.6 939.509,-162.6 "/>
<text text-anchor="middle" x="908" y="-149.6" font-family="Helvetica,sans-Serif" font-size="9.00"> </text>
</g>
<!-- Node16&#45;&gt;Node1 -->
<g id="edge19" class="edge"><title>Node16&#45;&gt;Node1</title>
<path fill="none" stroke="#404040" d="M876.658,-143.683C873.507,-141.585 870.263,-139.647 867,-138 750.767,-79.3204 596.675,-57.5373 517.986,-49.8748"/>
<polygon fill="none" stroke="#404040" points="517.97,-49.8734 511.625,-53.3009 506.021,-48.7628 512.366,-45.3352 517.97,-49.8734"/>
<text text-anchor="middle" x="861.383" y="-110.4" font-family="Helvetica,sans-Serif" font-size="9.00"> +BUFFER_SIZE</text>
</g>
</g>
</svg>
