<?xml version="1.0" encoding="UTF-8" standalone="no"?>
<!DOCTYPE svg PUBLIC "-//W3C//DTD SVG 1.1//EN"
 "http://www.w3.org/Graphics/SVG/1.1/DTD/svg11.dtd">
<!-- Generated by graphviz version 2.34.0 (20131023.0619)
 -->
<!-- Title: REST::Dispatchers::LeastConnections Pages: 1 -->
<svg width="568pt" height="702pt"
 viewBox="0.00 0.00 567.54 702.00" xmlns="http://www.w3.org/2000/svg" xmlns:xlink="http://www.w3.org/1999/xlink">
<g id="graph0" class="graph" transform="scale(1 1) rotate(0) translate(4 698)">
<title>REST::Dispatchers::LeastConnections</title>
<polygon fill="white" stroke="white" points="-4,4 -4,-698 563.539,-698 563.539,4 -4,4"/>
<!-- Node1 -->
<g id="node1" class="node"><title>Node1</title>
<polygon fill="#bfbfbf" stroke="black" points="272.101,-0.4 272.101,-67.6 373.899,-67.6 373.899,-0.4 272.101,-0.4"/>
<text text-anchor="start" x="280.101" y="-54.6" font-family="Helvetica,sans-Serif" font-size="9.00">REST::Dispatchers::</text>
<text text-anchor="middle" x="323" y="-43.8" font-family="Helvetica,sans-Serif" font-size="9.00">LeastConnections</text>
<polyline fill="none" stroke="black" points="272.101,-38 373.899,-38 "/>
<text text-anchor="middle" x="323" y="-25" font-family="Helvetica,sans-Serif" font-size="9.00"> </text>
<polyline fill="none" stroke="black" points="272.101,-19.2 373.899,-19.2 "/>
<text text-anchor="start" x="280.101" y="-6.2" font-family="Helvetica,sans-Serif" font-size="9.00">+ LeastConnections()</text>
</g>
<!-- Node2 -->
<g id="node2" class="node"><title>Node2</title>
<polygon fill="white" stroke="#bfbfbf" points="277.734,-107.2 277.734,-206.8 368.266,-206.8 368.266,-107.2 277.734,-107.2"/>
<text text-anchor="middle" x="323" y="-193.8" font-family="Helvetica,sans-Serif" font-size="9.00">REST::Dispatcher</text>
<polyline fill="none" stroke="#bfbfbf" points="277.734,-188 368.266,-188 "/>
<text text-anchor="middle" x="323" y="-175" font-family="Helvetica,sans-Serif" font-size="9.00"> </text>
<polyline fill="none" stroke="#bfbfbf" points="277.734,-169.2 368.266,-169.2 "/>
<text text-anchor="start" x="285.734" y="-156.2" font-family="Helvetica,sans-Serif" font-size="9.00">+ Dispatcher()</text>
<text text-anchor="start" x="285.734" y="-145.4" font-family="Helvetica,sans-Serif" font-size="9.00">+ ~Dispatcher()</text>
<text text-anchor="start" x="285.734" y="-134.6" font-family="Helvetica,sans-Serif" font-size="9.00">+ dispatch()</text>
<text text-anchor="start" x="285.734" y="-123.8" font-family="Helvetica,sans-Serif" font-size="9.00">+ next()</text>
<text text-anchor="start" x="285.734" y="-113" font-family="Helvetica,sans-Serif" font-size="9.00"># next_worker_id()</text>
</g>
<!-- Node2&#45;&gt;Node1 -->
<g id="edge1" class="edge"><title>Node2&#45;&gt;Node1</title>
<path fill="none" stroke="midnightblue" d="M323,-97.0933C323,-86.9917 323,-76.8308 323,-67.7381"/>
<polygon fill="none" stroke="midnightblue" points="319.5,-97.1334 323,-107.133 326.5,-97.1335 319.5,-97.1334"/>
</g>
<!-- Node3 -->
<g id="node3" class="node"><title>Node3</title>
<polygon fill="white" stroke="#bfbfbf" points="47.1016,-272.4 47.1016,-339.6 156.898,-339.6 156.898,-272.4 47.1016,-272.4"/>
<text text-anchor="start" x="55.1016" y="-326.6" font-family="Helvetica,sans-Serif" font-size="9.00">std::vector&lt; std::shared</text>
<text text-anchor="middle" x="102" y="-315.8" font-family="Helvetica,sans-Serif" font-size="9.00">_ptr&lt; Worker &gt; &gt;</text>
<polyline fill="none" stroke="#bfbfbf" points="47.1016,-310 156.898,-310 "/>
<text text-anchor="middle" x="102" y="-297" font-family="Helvetica,sans-Serif" font-size="9.00"> </text>
<polyline fill="none" stroke="#bfbfbf" points="47.1016,-291.2 156.898,-291.2 "/>
<text text-anchor="middle" x="102" y="-278.2" font-family="Helvetica,sans-Serif" font-size="9.00"> </text>
</g>
<!-- Node3&#45;&gt;Node2 -->
<g id="edge2" class="edge"><title>Node3&#45;&gt;Node2</title>
<path fill="none" stroke="#404040" d="M151.047,-272.376C185.422,-249.511 231.43,-218.908 267.206,-195.112"/>
<polygon fill="none" stroke="#404040" points="267.489,-194.923 270.27,-188.27 277.481,-188.277 274.7,-194.931 267.489,-194.923"/>
<text text-anchor="middle" x="239.505" y="-233.4" font-family="Helvetica,sans-Serif" font-size="9.00"> #workers</text>
</g>
<!-- Node4 -->
<g id="node4" class="node"><title>Node4</title>
<polygon fill="white" stroke="#bfbfbf" points="-0.69043,-409.8 -0.69043,-466.2 102.69,-466.2 102.69,-409.8 -0.69043,-409.8"/>
<text text-anchor="middle" x="51" y="-453.2" font-family="Helvetica,sans-Serif" font-size="9.00">shared_ptr&lt; Worker &gt;</text>
<polyline fill="none" stroke="#bfbfbf" points="-0.69043,-447.4 102.69,-447.4 "/>
<text text-anchor="middle" x="51" y="-434.4" font-family="Helvetica,sans-Serif" font-size="9.00"> </text>
<polyline fill="none" stroke="#bfbfbf" points="-0.69043,-428.6 102.69,-428.6 "/>
<text text-anchor="middle" x="51" y="-415.6" font-family="Helvetica,sans-Serif" font-size="9.00"> </text>
</g>
<!-- Node4&#45;&gt;Node3 -->
<g id="edge3" class="edge"><title>Node4&#45;&gt;Node3</title>
<path fill="none" stroke="#404040" d="M46.8091,-409.454C45.7691,-395.41 46.2315,-378.318 51.7251,-364 53.5863,-359.149 56.0642,-354.442 58.9253,-349.949"/>
<polygon fill="none" stroke="#404040" points="59.1637,-349.619 59.4315,-342.413 66.1862,-339.888 65.9185,-347.094 59.1637,-349.619"/>
<text text-anchor="middle" x="74.1375" y="-371.4" font-family="Helvetica,sans-Serif" font-size="9.00"> +elements</text>
</g>
<!-- Node5 -->
<g id="node5" class="node"><title>Node5</title>
<g id="a_node5"><a xlink:title="STL class. ">
<polygon fill="white" stroke="#bfbfbf" points="149.896,-409.8 149.896,-466.2 228.104,-466.2 228.104,-409.8 149.896,-409.8"/>
<text text-anchor="middle" x="189" y="-453.2" font-family="Helvetica,sans-Serif" font-size="9.00">std::vector&lt; T &gt;</text>
<polyline fill="none" stroke="#bfbfbf" points="149.896,-447.4 228.104,-447.4 "/>
<text text-anchor="middle" x="189" y="-434.4" font-family="Helvetica,sans-Serif" font-size="9.00"> </text>
<polyline fill="none" stroke="#bfbfbf" points="149.896,-428.6 228.104,-428.6 "/>
<text text-anchor="middle" x="189" y="-415.6" font-family="Helvetica,sans-Serif" font-size="9.00"> </text>
</a>
</g>
</g>
<!-- Node5&#45;&gt;Node3 -->
<g id="edge4" class="edge"><title>Node5&#45;&gt;Node3</title>
<path fill="none" stroke="orange" d="M142.662,-402.793C137.401,-397.578 132.49,-391.939 128.454,-386 119.104,-372.243 112.816,-354.904 108.726,-339.977"/>
<polygon fill="orange" stroke="orange" points="140.299,-405.375 150.002,-409.628 145.069,-400.252 140.299,-405.375"/>
<text text-anchor="start" x="129" y="-376.8" font-family="Helvetica,sans-Serif" font-size="9.00"> &lt; std::shared_ptr&lt;</text>
<text text-anchor="middle" x="166.773" y="-366" font-family="Helvetica,sans-Serif" font-size="9.00"> Worker &gt; &gt;</text>
</g>
<!-- Node8 -->
<g id="node8" class="node"><title>Node8</title>
<polygon fill="white" stroke="#bfbfbf" points="175.225,-267 175.225,-345 290.775,-345 290.775,-267 175.225,-267"/>
<text text-anchor="start" x="183.225" y="-332" font-family="Helvetica,sans-Serif" font-size="9.00">std::vector&lt; std::queue</text>
<text text-anchor="start" x="183.225" y="-321.2" font-family="Helvetica,sans-Serif" font-size="9.00">&lt; std::shared_ptr&lt; REST</text>
<text text-anchor="middle" x="233" y="-310.4" font-family="Helvetica,sans-Serif" font-size="9.00">::Request &gt; &gt; &gt;</text>
<polyline fill="none" stroke="#bfbfbf" points="175.225,-304.6 290.775,-304.6 "/>
<text text-anchor="middle" x="233" y="-291.6" font-family="Helvetica,sans-Serif" font-size="9.00"> </text>
<polyline fill="none" stroke="#bfbfbf" points="175.225,-285.8 290.775,-285.8 "/>
<text text-anchor="middle" x="233" y="-272.8" font-family="Helvetica,sans-Serif" font-size="9.00"> </text>
</g>
<!-- Node5&#45;&gt;Node8 -->
<g id="edge12" class="edge"><title>Node5&#45;&gt;Node8</title>
<path fill="none" stroke="orange" d="M201.509,-400.043C207.33,-382.842 214.249,-362.399 220.117,-345.063"/>
<polygon fill="orange" stroke="orange" points="198.115,-399.153 198.224,-409.748 204.745,-401.398 198.115,-399.153"/>
<text text-anchor="start" x="214" y="-376.8" font-family="Helvetica,sans-Serif" font-size="9.00"> &lt; std::queue&lt; std::</text>
<text text-anchor="middle" x="281.79" y="-366" font-family="Helvetica,sans-Serif" font-size="9.00">shared_ptr&lt; REST::Request &gt; &gt; &gt;</text>
</g>
<!-- Node6 -->
<g id="node6" class="node"><title>Node6</title>
<polygon fill="white" stroke="#bfbfbf" points="207.5,-636.8 207.5,-693.2 236.5,-693.2 236.5,-636.8 207.5,-636.8"/>
<text text-anchor="middle" x="221.749" y="-680.2" font-family="Helvetica,sans-Serif" font-size="9.00">T</text>
<polyline fill="none" stroke="#bfbfbf" points="207.5,-674.4 235.998,-674.4 "/>
<text text-anchor="middle" x="221.749" y="-661.4" font-family="Helvetica,sans-Serif" font-size="9.00"> </text>
<polyline fill="none" stroke="#bfbfbf" points="207.5,-655.6 235.998,-655.6 "/>
<text text-anchor="middle" x="221.749" y="-642.6" font-family="Helvetica,sans-Serif" font-size="9.00"> </text>
</g>
<!-- Node6&#45;&gt;Node5 -->
<g id="edge5" class="edge"><title>Node6&#45;&gt;Node5</title>
<path fill="none" stroke="#404040" d="M211.919,-636.588C207.098,-622.301 201.734,-604.424 198.725,-588 192.002,-551.298 189.764,-508.764 189.094,-478.559"/>
<polygon fill="none" stroke="#404040" points="189.092,-478.42 184.994,-472.487 188.894,-466.422 192.992,-472.355 189.092,-478.42"/>
<text text-anchor="middle" x="221.137" y="-555.4" font-family="Helvetica,sans-Serif" font-size="9.00"> +elements</text>
</g>
<!-- Node11 -->
<g id="node11" class="node"><title>Node11</title>
<g id="a_node11"><a xlink:title="STL class. ">
<polygon fill="white" stroke="#bfbfbf" points="251.636,-530.8 251.636,-587.2 330.364,-587.2 330.364,-530.8 251.636,-530.8"/>
<text text-anchor="middle" x="291" y="-574.2" font-family="Helvetica,sans-Serif" font-size="9.00">std::queue&lt; T &gt;</text>
<polyline fill="none" stroke="#bfbfbf" points="251.636,-568.4 330.364,-568.4 "/>
<text text-anchor="middle" x="291" y="-555.4" font-family="Helvetica,sans-Serif" font-size="9.00"> </text>
<polyline fill="none" stroke="#bfbfbf" points="251.636,-549.6 330.364,-549.6 "/>
<text text-anchor="middle" x="291" y="-536.6" font-family="Helvetica,sans-Serif" font-size="9.00"> </text>
</a>
</g>
</g>
<!-- Node6&#45;&gt;Node11 -->
<g id="edge11" class="edge"><title>Node6&#45;&gt;Node11</title>
<path fill="none" stroke="#404040" d="M236.633,-641.944C245.247,-628.961 256.368,-612.199 266.305,-597.222"/>
<polygon fill="none" stroke="#404040" points="266.316,-597.205 266.3,-589.994 272.95,-587.206 272.966,-594.417 266.316,-597.205"/>
<text text-anchor="middle" x="281.137" y="-608.4" font-family="Helvetica,sans-Serif" font-size="9.00"> +elements</text>
</g>
<!-- Node7 -->
<g id="node7" class="node"><title>Node7</title>
<polygon fill="white" stroke="#bfbfbf" points="309.243,-277.8 309.243,-334.2 354.757,-334.2 354.757,-277.8 309.243,-277.8"/>
<text text-anchor="middle" x="332" y="-321.2" font-family="Helvetica,sans-Serif" font-size="9.00">size_t *</text>
<polyline fill="none" stroke="#bfbfbf" points="309.243,-315.4 354.757,-315.4 "/>
<text text-anchor="middle" x="332" y="-302.4" font-family="Helvetica,sans-Serif" font-size="9.00"> </text>
<polyline fill="none" stroke="#bfbfbf" points="309.243,-296.6 354.757,-296.6 "/>
<text text-anchor="middle" x="332" y="-283.6" font-family="Helvetica,sans-Serif" font-size="9.00"> </text>
</g>
<!-- Node7&#45;&gt;Node2 -->
<g id="edge6" class="edge"><title>Node7&#45;&gt;Node2</title>
<path fill="none" stroke="#404040" d="M327.389,-277.536C326.016,-268.191 324.684,-257.667 323.953,-248 323.249,-238.688 322.822,-228.818 322.581,-219.159"/>
<polygon fill="none" stroke="#404040" points="322.58,-219.093 318.475,-213.164 322.368,-207.095 326.473,-213.023 322.58,-219.093"/>
<text text-anchor="middle" x="358.523" y="-233.4" font-family="Helvetica,sans-Serif" font-size="9.00"> #requests_count</text>
</g>
<!-- Node8&#45;&gt;Node2 -->
<g id="edge7" class="edge"><title>Node8&#45;&gt;Node2</title>
<path fill="none" stroke="#404040" d="M253.366,-266.841C260.582,-253.751 268.915,-239.103 276.975,-226 278.761,-223.097 280.614,-220.144 282.507,-217.174"/>
<polygon fill="none" stroke="#404040" points="282.531,-217.138 282.436,-209.927 289.055,-207.066 289.15,-214.277 282.531,-217.138"/>
<text text-anchor="middle" x="298.012" y="-233.4" font-family="Helvetica,sans-Serif" font-size="9.00"> #requests</text>
</g>
<!-- Node9 -->
<g id="node9" class="node"><title>Node9</title>
<polygon fill="white" stroke="#bfbfbf" points="317.847,-404.4 317.847,-471.6 434.153,-471.6 434.153,-404.4 317.847,-404.4"/>
<text text-anchor="start" x="325.847" y="-458.6" font-family="Helvetica,sans-Serif" font-size="9.00">std::queue&lt; std::shared</text>
<text text-anchor="middle" x="376" y="-447.8" font-family="Helvetica,sans-Serif" font-size="9.00">_ptr&lt; REST::Request &gt; &gt;</text>
<polyline fill="none" stroke="#bfbfbf" points="317.847,-442 434.153,-442 "/>
<text text-anchor="middle" x="376" y="-429" font-family="Helvetica,sans-Serif" font-size="9.00"> </text>
<polyline fill="none" stroke="#bfbfbf" points="317.847,-423.2 434.153,-423.2 "/>
<text text-anchor="middle" x="376" y="-410.2" font-family="Helvetica,sans-Serif" font-size="9.00"> </text>
</g>
<!-- Node9&#45;&gt;Node8 -->
<g id="edge8" class="edge"><title>Node9&#45;&gt;Node8</title>
<path fill="none" stroke="#404040" d="M372.316,-404.162C369.211,-390.216 363.499,-374.734 353,-364 337.848,-348.508 326.057,-354.17 302.421,-346.256"/>
<polygon fill="none" stroke="#404040" points="302.246,-346.186 295.191,-347.677 291.101,-341.738 298.156,-340.247 302.246,-346.186"/>
<text text-anchor="middle" x="389.137" y="-371.4" font-family="Helvetica,sans-Serif" font-size="9.00"> +elements</text>
</g>
<!-- Node10 -->
<g id="node10" class="node"><title>Node10</title>
<polygon fill="white" stroke="#bfbfbf" points="347.966,-530.8 347.966,-587.2 484.034,-587.2 484.034,-530.8 347.966,-530.8"/>
<text text-anchor="middle" x="416" y="-574.2" font-family="Helvetica,sans-Serif" font-size="9.00">shared_ptr&lt; REST::Request &gt;</text>
<polyline fill="none" stroke="#bfbfbf" points="347.966,-568.4 484.034,-568.4 "/>
<text text-anchor="middle" x="416" y="-555.4" font-family="Helvetica,sans-Serif" font-size="9.00"> </text>
<polyline fill="none" stroke="#bfbfbf" points="347.966,-549.6 484.034,-549.6 "/>
<text text-anchor="middle" x="416" y="-536.6" font-family="Helvetica,sans-Serif" font-size="9.00"> </text>
</g>
<!-- Node10&#45;&gt;Node9 -->
<g id="edge9" class="edge"><title>Node10&#45;&gt;Node9</title>
<path fill="none" stroke="#404040" d="M406.823,-530.699C402.118,-516.701 396.269,-499.3 390.935,-483.43"/>
<polygon fill="none" stroke="#404040" points="390.807,-483.049 385.103,-478.636 386.983,-471.675 392.686,-476.087 390.807,-483.049"/>
<text text-anchor="middle" x="422.137" y="-497.4" font-family="Helvetica,sans-Serif" font-size="9.00"> +elements</text>
</g>
<!-- Node11&#45;&gt;Node9 -->
<g id="edge10" class="edge"><title>Node11&#45;&gt;Node9</title>
<path fill="none" stroke="orange" d="M297.187,-520.652C300.086,-510.138 304.312,-499.099 310.459,-490 314.898,-483.429 320.455,-477.328 326.444,-471.797"/>
<polygon fill="orange" stroke="orange" points="293.757,-519.947 294.796,-530.491 300.559,-521.6 293.757,-519.947"/>
<text text-anchor="start" x="311" y="-502.8" font-family="Helvetica,sans-Serif" font-size="9.00"> &lt; std::shared_ptr&lt;</text>
<text text-anchor="middle" x="350.771" y="-492" font-family="Helvetica,sans-Serif" font-size="9.00"> REST::Request &gt; &gt;</text>
</g>
<!-- Node12 -->
<g id="node12" class="node"><title>Node12</title>
<polygon fill="white" stroke="#bfbfbf" points="400.5,-277.8 400.5,-334.2 429.5,-334.2 429.5,-277.8 400.5,-277.8"/>
<text text-anchor="middle" x="414.753" y="-321.2" font-family="Helvetica,sans-Serif" font-size="9.00">int</text>
<polyline fill="none" stroke="#bfbfbf" points="400.5,-315.4 429.005,-315.4 "/>
<text text-anchor="middle" x="414.753" y="-302.4" font-family="Helvetica,sans-Serif" font-size="9.00"> </text>
<polyline fill="none" stroke="#bfbfbf" points="400.5,-296.6 429.005,-296.6 "/>
<text text-anchor="middle" x="414.753" y="-283.6" font-family="Helvetica,sans-Serif" font-size="9.00"> </text>
</g>
<!-- Node12&#45;&gt;Node2 -->
<g id="edge13" class="edge"><title>Node12&#45;&gt;Node2</title>
<path fill="none" stroke="#404040" d="M411.051,-277.623C407.889,-261.729 402.375,-241.793 393,-226 388.481,-218.388 382.89,-211.05 376.854,-204.192"/>
<polygon fill="none" stroke="#404040" points="376.602,-203.922 369.582,-202.271 368.406,-195.157 375.425,-196.807 376.602,-203.922"/>
<text text-anchor="middle" x="436.016" y="-233.4" font-family="Helvetica,sans-Serif" font-size="9.00"> #workers_count</text>
</g>
<!-- Node13 -->
<g id="node13" class="node"><title>Node13</title>
<polygon fill="white" stroke="#bfbfbf" points="480.744,-277.8 480.744,-334.2 527.256,-334.2 527.256,-277.8 480.744,-277.8"/>
<text text-anchor="middle" x="504" y="-321.2" font-family="Helvetica,sans-Serif" font-size="9.00">mutex *</text>
<polyline fill="none" stroke="#bfbfbf" points="480.744,-315.4 527.256,-315.4 "/>
<text text-anchor="middle" x="504" y="-302.4" font-family="Helvetica,sans-Serif" font-size="9.00"> </text>
<polyline fill="none" stroke="#bfbfbf" points="480.744,-296.6 527.256,-296.6 "/>
<text text-anchor="middle" x="504" y="-283.6" font-family="Helvetica,sans-Serif" font-size="9.00"> </text>
</g>
<!-- Node13&#45;&gt;Node2 -->
<g id="edge14" class="edge"><title>Node13&#45;&gt;Node2</title>
<path fill="none" stroke="#404040" d="M498.753,-277.654C494.334,-260.978 486.493,-240.209 473,-226 448.034,-199.71 411,-182.78 379.977,-172.389"/>
<polygon fill="none" stroke="#404040" points="379.857,-172.351 372.928,-174.348 368.42,-168.72 375.349,-166.723 379.857,-172.351"/>
<text text-anchor="middle" x="523.769" y="-238.8" font-family="Helvetica,sans-Serif" font-size="9.00"> #requests_empty</text>
<text text-anchor="middle" x="523.769" y="-228" font-family="Helvetica,sans-Serif" font-size="9.00">#requests_lock</text>
</g>
</g>
</svg>
