<?xml version="1.0" encoding="UTF-8" standalone="no"?>
<!DOCTYPE svg PUBLIC "-//W3C//DTD SVG 1.1//EN"
 "http://www.w3.org/Graphics/SVG/1.1/DTD/svg11.dtd">
<!-- Generated by graphviz version 2.34.0 (20131023.0619)
 -->
<!-- Title: REST::Service Pages: 1 -->
<!--zoomable 246 -->
<svg id="main" version="1.1" xmlns="http://www.w3.org/2000/svg" xmlns:xlink="http://www.w3.org/1999/xlink" xml:space="preserve" onload="init(evt)">
<style type="text/css"><![CDATA[
.edge:hover path { stroke: red; }
.edge:hover polygon { stroke: red; fill: red; }
]]></style>
<script type="text/javascript"><![CDATA[
var edges = document.getElementsByTagName('g');
if (edges && edges.length) {
  for (var i=0;i<edges.length;i++) {
    if (edges[i].id.substr(0,4)=='edge') {
      edges[i].setAttribute('class','edge');
    }
  }
}
]]></script>
        <defs>
                <circle id="rim" cx="0" cy="0" r="7"/>
                <circle id="rim2" cx="0" cy="0" r="3.5"/>
                <g id="zoomPlus">
                        <use xlink:href="#rim" fill="#404040">
                                <set attributeName="fill" to="#808080" begin="zoomplus.mouseover" end="zoomplus.mouseout"/>
                        </use>
                        <path d="M-4,0h8M0,-4v8" fill="none" stroke="white" stroke-width="1.5" pointer-events="none"/>
                </g>
                <g id="zoomMin">
                        <use xlink:href="#rim" fill="#404040">
                                <set attributeName="fill" to="#808080" begin="zoomminus.mouseover" end="zoomminus.mouseout"/>
                        </use>
                        <path d="M-4,0h8" fill="none" stroke="white" stroke-width="1.5" pointer-events="none"/>
                </g>
                <g id="dirArrow">
                        <path fill="none" stroke="white" stroke-width="1.5" d="M0,-3.0v7 M-2.5,-0.5L0,-3.0L2.5,-0.5"/>
                </g>
               <g id="resetDef">
                       <use xlink:href="#rim2" fill="#404040">
                               <set attributeName="fill" to="#808080" begin="reset.mouseover" end="reset.mouseout"/>
                       </use>
               </g>
        </defs>

<script type="text/javascript">
var viewWidth = 572;
var viewHeight = 246;
var sectionId = 'dynsection-1';
</script>
<script xlink:href="svgpan.js"/>
<svg id="graph" class="graph">
<g id="viewport">
<title>REST::Service</title>
<polygon fill="white" stroke="white" points="-4,4 -4,-242 568,-242 568,4 -4,4"/>
<!-- Node1 -->
<g id="node1" class="node"><title>Node1</title>
<polygon fill="#bfbfbf" stroke="black" points="238.095,-0.4 238.095,-121.6 351.905,-121.6 351.905,-0.4 238.095,-0.4"/>
<text text-anchor="middle" x="295" y="-108.6" font-family="Helvetica,sans-Serif" font-size="9.00">REST::Service</text>
<polyline fill="none" stroke="black" points="238.095,-102.8 351.905,-102.8 "/>
<text text-anchor="middle" x="295" y="-89.8" font-family="Helvetica,sans-Serif" font-size="9.00"> </text>
<polyline fill="none" stroke="black" points="238.095,-84 351.905,-84 "/>
<text text-anchor="start" x="246.095" y="-71" font-family="Helvetica,sans-Serif" font-size="9.00">+ Service()</text>
<text text-anchor="start" x="246.095" y="-60.2" font-family="Helvetica,sans-Serif" font-size="9.00">+ ensure_session()</text>
<text text-anchor="start" x="246.095" y="-49.4" font-family="Helvetica,sans-Serif" font-size="9.00">+ ensure_authorization()</text>
<text text-anchor="start" x="246.095" y="-38.6" font-family="Helvetica,sans-Serif" font-size="9.00"># make_action()</text>
<text text-anchor="start" x="246.095" y="-27.8" font-family="Helvetica,sans-Serif" font-size="9.00"># before()</text>
<text text-anchor="start" x="246.095" y="-17" font-family="Helvetica,sans-Serif" font-size="9.00"># after()</text>
<text text-anchor="start" x="246.095" y="-6.2" font-family="Helvetica,sans-Serif" font-size="9.00"># method()</text>
</g>
<!-- Node2 -->
<g id="node2" class="node"><title>Node2</title>
<polygon fill="white" stroke="#bfbfbf" points="-0.536133,-175.8 -0.536133,-232.2 142.536,-232.2 142.536,-175.8 -0.536133,-175.8"/>
<text text-anchor="middle" x="71" y="-219.2" font-family="Helvetica,sans-Serif" font-size="9.00">shared_ptr&lt; REST::Response &gt;</text>
<polyline fill="none" stroke="#bfbfbf" points="-0.536133,-213.4 142.536,-213.4 "/>
<text text-anchor="middle" x="71" y="-200.4" font-family="Helvetica,sans-Serif" font-size="9.00"> </text>
<polyline fill="none" stroke="#bfbfbf" points="-0.536133,-194.6 142.536,-194.6 "/>
<text text-anchor="middle" x="71" y="-181.6" font-family="Helvetica,sans-Serif" font-size="9.00"> </text>
</g>
<!-- Node2&#45;&gt;Node1 -->
<g id="edge1" class="edge"><title>Node2&#45;&gt;Node1</title>
<path fill="none" stroke="#404040" d="M114.455,-175.647C146.531,-155.456 190.794,-127.594 227.465,-104.511"/>
<polygon fill="none" stroke="#404040" points="227.928,-104.22 230.875,-97.6381 238.083,-97.827 235.136,-104.409 227.928,-104.22"/>
<text text-anchor="middle" x="192.39" y="-142.4" font-family="Helvetica,sans-Serif" font-size="9.00"> +response</text>
</g>
<!-- Node3 -->
<g id="node3" class="node"><title>Node3</title>
<polygon fill="white" stroke="#bfbfbf" points="160.718,-175.8 160.718,-232.2 295.282,-232.2 295.282,-175.8 160.718,-175.8"/>
<text text-anchor="middle" x="228" y="-219.2" font-family="Helvetica,sans-Serif" font-size="9.00">shared_ptr&lt; REST::Session &gt;</text>
<polyline fill="none" stroke="#bfbfbf" points="160.718,-213.4 295.282,-213.4 "/>
<text text-anchor="middle" x="228" y="-200.4" font-family="Helvetica,sans-Serif" font-size="9.00"> </text>
<polyline fill="none" stroke="#bfbfbf" points="160.718,-194.6 295.282,-194.6 "/>
<text text-anchor="middle" x="228" y="-181.6" font-family="Helvetica,sans-Serif" font-size="9.00"> </text>
</g>
<!-- Node3&#45;&gt;Node1 -->
<g id="edge2" class="edge"><title>Node3&#45;&gt;Node1</title>
<path fill="none" stroke="#404040" d="M241.077,-175.479C246.93,-163.161 254.129,-148.013 261.337,-132.844"/>
<polygon fill="none" stroke="#404040" points="261.418,-132.673 260.38,-125.537 266.568,-121.834 267.606,-128.97 261.418,-132.673"/>
<text text-anchor="middle" x="277.011" y="-142.4" font-family="Helvetica,sans-Serif" font-size="9.00"> #session</text>
</g>
<!-- Node4 -->
<g id="node4" class="node"><title>Node4</title>
<polygon fill="white" stroke="#bfbfbf" points="313.603,-170.4 313.603,-237.6 410.397,-237.6 410.397,-170.4 313.603,-170.4"/>
<text text-anchor="start" x="321.603" y="-224.6" font-family="Helvetica,sans-Serif" font-size="9.00">shared_ptr&lt; params</text>
<text text-anchor="middle" x="362" y="-213.8" font-family="Helvetica,sans-Serif" font-size="9.00">_map &gt;</text>
<polyline fill="none" stroke="#bfbfbf" points="313.603,-208 410.397,-208 "/>
<text text-anchor="middle" x="362" y="-195" font-family="Helvetica,sans-Serif" font-size="9.00"> </text>
<polyline fill="none" stroke="#bfbfbf" points="313.603,-189.2 410.397,-189.2 "/>
<text text-anchor="middle" x="362" y="-176.2" font-family="Helvetica,sans-Serif" font-size="9.00"> </text>
</g>
<!-- Node4&#45;&gt;Node1 -->
<g id="edge3" class="edge"><title>Node4&#45;&gt;Node1</title>
<path fill="none" stroke="#404040" d="M346.46,-170.297C341.085,-158.984 334.833,-145.827 328.577,-132.663"/>
<polygon fill="none" stroke="#404040" points="328.491,-132.482 322.303,-128.779 323.341,-121.643 329.529,-125.346 328.491,-132.482"/>
<text text-anchor="middle" x="355.883" y="-142.4" font-family="Helvetica,sans-Serif" font-size="9.00"> +params</text>
</g>
<!-- Node5 -->
<g id="node5" class="node"><title>Node5</title>
<polygon fill="white" stroke="#bfbfbf" points="427.966,-175.8 427.966,-232.2 564.034,-232.2 564.034,-175.8 427.966,-175.8"/>
<text text-anchor="middle" x="496" y="-219.2" font-family="Helvetica,sans-Serif" font-size="9.00">shared_ptr&lt; REST::Request &gt;</text>
<polyline fill="none" stroke="#bfbfbf" points="427.966,-213.4 564.034,-213.4 "/>
<text text-anchor="middle" x="496" y="-200.4" font-family="Helvetica,sans-Serif" font-size="9.00"> </text>
<polyline fill="none" stroke="#bfbfbf" points="427.966,-194.6 564.034,-194.6 "/>
<text text-anchor="middle" x="496" y="-181.6" font-family="Helvetica,sans-Serif" font-size="9.00"> </text>
</g>
<!-- Node5&#45;&gt;Node1 -->
<g id="edge4" class="edge"><title>Node5&#45;&gt;Node1</title>
<path fill="none" stroke="#404040" d="M456.768,-175.479C429.861,-156.604 393.48,-131.083 362.034,-109.024"/>
<polygon fill="none" stroke="#404040" points="361.84,-108.888 354.631,-108.717 352.016,-101.996 359.225,-102.167 361.84,-108.888"/>
<text text-anchor="middle" x="438.888" y="-142.4" font-family="Helvetica,sans-Serif" font-size="9.00"> +request</text>
</g>
</g>
</svg>
        <g id="navigator" transform="translate(0 0)" fill="#404254">
                <rect fill="#f2f5e9" fill-opacity="0.5" stroke="#606060" stroke-width=".5" x="0" y="0" width="60" height="60"/>
                <use id="zoomplus" xlink:href="#zoomPlus" x="17" y="9" onmousedown="handleZoom(evt,'in')"/>
                <use id="zoomminus" xlink:href="#zoomMin" x="42" y="9" onmousedown="handleZoom(evt,'out')"/>
                <use id="reset" xlink:href="#resetDef" x="30" y="36" onmousedown="handleReset()"/>
                <g id="arrowUp" xlink:href="#dirArrow" transform="translate(30 24)" onmousedown="handlePan(0,-1)">
                  <use xlink:href="#rim" fill="#404040">
                        <set attributeName="fill" to="#808080" begin="arrowUp.mouseover" end="arrowUp.mouseout"/>
                  </use>
                  <path fill="none" stroke="white" stroke-width="1.5" d="M0,-3.0v7 M-2.5,-0.5L0,-3.0L2.5,-0.5"/>
                </g>
                <g id="arrowRight" xlink:href="#dirArrow" transform="rotate(90) translate(36 -43)" onmousedown="handlePan(1,0)">
                  <use xlink:href="#rim" fill="#404040">
                        <set attributeName="fill" to="#808080" begin="arrowRight.mouseover" end="arrowRight.mouseout"/>
                  </use>
                  <path fill="none" stroke="white" stroke-width="1.5" d="M0,-3.0v7 M-2.5,-0.5L0,-3.0L2.5,-0.5"/>
                </g>
                <g id="arrowDown" xlink:href="#dirArrow" transform="rotate(180) translate(-30 -48)" onmousedown="handlePan(0,1)">
                  <use xlink:href="#rim" fill="#404040">
                        <set attributeName="fill" to="#808080" begin="arrowDown.mouseover" end="arrowDown.mouseout"/>
                  </use>
                  <path fill="none" stroke="white" stroke-width="1.5" d="M0,-3.0v7 M-2.5,-0.5L0,-3.0L2.5,-0.5"/>
                </g>
                <g id="arrowLeft" xlink:href="#dirArrow" transform="rotate(270) translate(-36 17)" onmousedown="handlePan(-1,0)">
                  <use xlink:href="#rim" fill="#404040">
                        <set attributeName="fill" to="#808080" begin="arrowLeft.mouseover" end="arrowLeft.mouseout"/>
                  </use>
                  <path fill="none" stroke="white" stroke-width="1.5" d="M0,-3.0v7 M-2.5,-0.5L0,-3.0L2.5,-0.5"/>
                </g>
        </g>
        <svg viewBox="0 0 15 15" width="100%" height="30px" preserveAspectRatio="xMaxYMin meet">
         <g id="arrow_out" transform="scale(0.3 0.3)">
          <a xlink:href="class_r_e_s_t_1_1_service__coll__graph_org.svg" target="_base">
           <rect id="button" ry="5" rx="5" y="6" x="6" height="38" width="38"
                fill="#f2f5e9" fill-opacity="0.5" stroke="#606060" stroke-width="1.0"/>
           <path id="arrow"
             d="M 11.500037,31.436501 C 11.940474,20.09759 22.043105,11.32322 32.158766,21.979434 L 37.068811,17.246167 C 37.068811,17.246167 37.088388,32 37.088388,32 L 22.160133,31.978069 C 22.160133,31.978069 26.997745,27.140456 26.997745,27.140456 C 18.528582,18.264221 13.291696,25.230495 11.500037,31.436501 z"
             style="fill:#404040;"/>
          </a>
         </g>
        </svg>
</svg>
