<?xml version="1.0" encoding="UTF-8" standalone="no"?>
<!DOCTYPE svg PUBLIC "-//W3C//DTD SVG 1.1//EN"
 "http://www.w3.org/Graphics/SVG/1.1/DTD/svg11.dtd">
<!-- Generated by graphviz version 2.34.0 (20131023.0619)
 -->
<!-- Title: REST::Router Pages: 1 -->
<svg width="102pt" height="258pt"
 viewBox="0.00 0.00 102.26 258.00" xmlns="http://www.w3.org/2000/svg" xmlns:xlink="http://www.w3.org/1999/xlink">
<g id="graph0" class="graph" transform="scale(1 1) rotate(0) translate(4 254)">
<title>REST::Router</title>
<polygon fill="white" stroke="white" points="-4,4 -4,-254 98.2593,-254 98.2593,4 -4,4"/>
<!-- Node1 -->
<g id="node1" class="node"><title>Node1</title>
<polygon fill="#bfbfbf" stroke="black" points="-0.389893,-0.6 -0.389893,-143.4 80.3899,-143.4 80.3899,-0.6 -0.389893,-0.6"/>
<text text-anchor="middle" x="40" y="-130.4" font-family="Helvetica,sans-Serif" font-size="9.00">REST::Router</text>
<polyline fill="none" stroke="black" points="-0.389893,-124.6 80.3899,-124.6 "/>
<text text-anchor="middle" x="40" y="-111.6" font-family="Helvetica,sans-Serif" font-size="9.00"> </text>
<polyline fill="none" stroke="black" points="-0.389893,-105.8 80.3899,-105.8 "/>
<text text-anchor="start" x="7.61011" y="-92.8" font-family="Helvetica,sans-Serif" font-size="9.00">+ route()</text>
<text text-anchor="start" x="7.61011" y="-82" font-family="Helvetica,sans-Serif" font-size="9.00">+ resource()</text>
<text text-anchor="start" x="7.61011" y="-71.2" font-family="Helvetica,sans-Serif" font-size="9.00">+ resource()</text>
<text text-anchor="start" x="7.61011" y="-60.4" font-family="Helvetica,sans-Serif" font-size="9.00">+ resource()</text>
<text text-anchor="start" x="7.61011" y="-49.6" font-family="Helvetica,sans-Serif" font-size="9.00">+ print()</text>
<text text-anchor="start" x="7.61011" y="-38.8" font-family="Helvetica,sans-Serif" font-size="9.00">+ ~Router()</text>
<text text-anchor="start" x="7.61011" y="-28" font-family="Helvetica,sans-Serif" font-size="9.00">+ Instance()</text>
<text text-anchor="start" x="7.61011" y="-17.2" font-family="Helvetica,sans-Serif" font-size="9.00">+ getResource()</text>
<text text-anchor="start" x="7.61011" y="-6.4" font-family="Helvetica,sans-Serif" font-size="9.00">+ match()</text>
</g>
<!-- Node2 -->
<g id="node2" class="node"><title>Node2</title>
<polygon fill="white" stroke="#bfbfbf" points="25.5,-192.8 25.5,-249.2 54.5,-249.2 54.5,-192.8 25.5,-192.8"/>
<text text-anchor="middle" x="39.7527" y="-236.2" font-family="Helvetica,sans-Serif" font-size="9.00">int</text>
<polyline fill="none" stroke="#bfbfbf" points="25.5,-230.4 54.0054,-230.4 "/>
<text text-anchor="middle" x="39.7527" y="-217.4" font-family="Helvetica,sans-Serif" font-size="9.00"> </text>
<polyline fill="none" stroke="#bfbfbf" points="25.5,-211.6 54.0054,-211.6 "/>
<text text-anchor="middle" x="39.7527" y="-198.6" font-family="Helvetica,sans-Serif" font-size="9.00"> </text>
</g>
<!-- Node2&#45;&gt;Node1 -->
<g id="edge1" class="edge"><title>Node2&#45;&gt;Node1</title>
<path fill="none" stroke="#404040" d="M40,-192.695C40,-182.015 40,-169.147 40,-155.865"/>
<polygon fill="none" stroke="#404040" points="40.0001,-155.6 36,-149.6 40,-143.6 44,-149.6 40.0001,-155.6"/>
<text text-anchor="middle" x="67.1296" y="-164.4" font-family="Helvetica,sans-Serif" font-size="9.00"> +WORKERS</text>
</g>
</g>
</svg>
