<?xml version="1.0" encoding="UTF-8" standalone="no"?>
<!DOCTYPE svg PUBLIC "-//W3C//DTD SVG 1.1//EN"
 "http://www.w3.org/Graphics/SVG/1.1/DTD/svg11.dtd">
<!-- Generated by graphviz version 2.34.0 (20131023.0619)
 -->
<!-- Title: REST::Dispatchers::RoundRobin Pages: 1 -->
<svg width="104pt" height="268pt"
 viewBox="0.00 0.00 104.00 268.00" xmlns="http://www.w3.org/2000/svg" xmlns:xlink="http://www.w3.org/1999/xlink">
<g id="graph0" class="graph" transform="scale(1 1) rotate(0) translate(4 264)">
<title>REST::Dispatchers::RoundRobin</title>
<polygon fill="white" stroke="white" points="-4,4 -4,-264 100,-264 100,4 -4,4"/>
<!-- Node1 -->
<g id="node1" class="node"><title>Node1</title>
<polygon fill="#bfbfbf" stroke="black" points="-0.262695,-0.4 -0.262695,-67.6 96.2627,-67.6 96.2627,-0.4 -0.262695,-0.4"/>
<text text-anchor="start" x="7.7373" y="-54.6" font-family="Helvetica,sans-Serif" font-size="9.00">REST::Dispatchers::</text>
<text text-anchor="middle" x="48" y="-43.8" font-family="Helvetica,sans-Serif" font-size="9.00">RoundRobin</text>
<polyline fill="none" stroke="black" points="-0.262695,-38 96.2627,-38 "/>
<text text-anchor="middle" x="48" y="-25" font-family="Helvetica,sans-Serif" font-size="9.00"> </text>
<polyline fill="none" stroke="black" points="-0.262695,-19.2 96.2627,-19.2 "/>
<text text-anchor="start" x="7.7373" y="-6.2" font-family="Helvetica,sans-Serif" font-size="9.00">+ RoundRobin()</text>
</g>
<!-- Node2 -->
<g id="node2" class="node"><title>Node2</title>
<polygon fill="white" stroke="#bfbfbf" points="2.73438,-105.2 2.73438,-258.8 93.2656,-258.8 93.2656,-105.2 2.73438,-105.2"/>
<text text-anchor="middle" x="48" y="-245.8" font-family="Helvetica,sans-Serif" font-size="9.00">REST::Dispatcher</text>
<polyline fill="none" stroke="#bfbfbf" points="2.73438,-240 93.2656,-240 "/>
<text text-anchor="start" x="10.7344" y="-227" font-family="Helvetica,sans-Serif" font-size="9.00"># workers_count</text>
<text text-anchor="start" x="10.7344" y="-216.2" font-family="Helvetica,sans-Serif" font-size="9.00"># workers</text>
<text text-anchor="start" x="10.7344" y="-205.4" font-family="Helvetica,sans-Serif" font-size="9.00"># requests</text>
<text text-anchor="start" x="10.7344" y="-194.6" font-family="Helvetica,sans-Serif" font-size="9.00"># requests_count</text>
<text text-anchor="start" x="10.7344" y="-183.8" font-family="Helvetica,sans-Serif" font-size="9.00"># requests_empty</text>
<text text-anchor="start" x="10.7344" y="-173" font-family="Helvetica,sans-Serif" font-size="9.00"># requests_lock</text>
<polyline fill="none" stroke="#bfbfbf" points="2.73438,-167.2 93.2656,-167.2 "/>
<text text-anchor="start" x="10.7344" y="-154.2" font-family="Helvetica,sans-Serif" font-size="9.00">+ Dispatcher()</text>
<text text-anchor="start" x="10.7344" y="-143.4" font-family="Helvetica,sans-Serif" font-size="9.00">+ ~Dispatcher()</text>
<text text-anchor="start" x="10.7344" y="-132.6" font-family="Helvetica,sans-Serif" font-size="9.00">+ dispatch()</text>
<text text-anchor="start" x="10.7344" y="-121.8" font-family="Helvetica,sans-Serif" font-size="9.00">+ next()</text>
<text text-anchor="start" x="10.7344" y="-111" font-family="Helvetica,sans-Serif" font-size="9.00"># next_worker_id()</text>
</g>
<!-- Node2&#45;&gt;Node1 -->
<g id="edge1" class="edge"><title>Node2&#45;&gt;Node1</title>
<path fill="none" stroke="midnightblue" d="M48,-94.8799C48,-85.2436 48,-75.9228 48,-67.619"/>
<polygon fill="none" stroke="midnightblue" points="44.5001,-95.0066 48,-105.007 51.5001,-95.0066 44.5001,-95.0066"/>
</g>
</g>
</svg>
