<?xml version="1.0" encoding="UTF-8" standalone="no"?>
<!DOCTYPE svg PUBLIC "-//W3C//DTD SVG 1.1//EN"
 "http://www.w3.org/Graphics/SVG/1.1/DTD/svg11.dtd">
<!-- Generated by graphviz version 2.34.0 (20131023.0619)
 -->
<!-- Title: REST::Response Pages: 1 -->
<!--zoomable 468 -->
<svg id="main" version="1.1" xmlns="http://www.w3.org/2000/svg" xmlns:xlink="http://www.w3.org/1999/xlink" xml:space="preserve" onload="init(evt)">
<style type="text/css"><![CDATA[
.edge:hover path { stroke: red; }
.edge:hover polygon { stroke: red; fill: red; }
]]></style>
<script type="text/javascript"><![CDATA[
var edges = document.getElementsByTagName('g');
if (edges && edges.length) {
  for (var i=0;i<edges.length;i++) {
    if (edges[i].id.substr(0,4)=='edge') {
      edges[i].setAttribute('class','edge');
    }
  }
}
]]></script>
        <defs>
                <circle id="rim" cx="0" cy="0" r="7"/>
                <circle id="rim2" cx="0" cy="0" r="3.5"/>
                <g id="zoomPlus">
                        <use xlink:href="#rim" fill="#404040">
                                <set attributeName="fill" to="#808080" begin="zoomplus.mouseover" end="zoomplus.mouseout"/>
                        </use>
                        <path d="M-4,0h8M0,-4v8" fill="none" stroke="white" stroke-width="1.5" pointer-events="none"/>
                </g>
                <g id="zoomMin">
                        <use xlink:href="#rim" fill="#404040">
                                <set attributeName="fill" to="#808080" begin="zoomminus.mouseover" end="zoomminus.mouseout"/>
                        </use>
                        <path d="M-4,0h8" fill="none" stroke="white" stroke-width="1.5" pointer-events="none"/>
                </g>
                <g id="dirArrow">
                        <path fill="none" stroke="white" stroke-width="1.5" d="M0,-3.0v7 M-2.5,-0.5L0,-3.0L2.5,-0.5"/>
                </g>
               <g id="resetDef">
                       <use xlink:href="#rim2" fill="#404040">
                               <set attributeName="fill" to="#808080" begin="reset.mouseover" end="reset.mouseout"/>
                       </use>
               </g>
        </defs>

<script type="text/javascript">
var viewWidth = 493;
var viewHeight = 468;
var sectionId = 'dynsection-0';
</script>
<script xlink:href="svgpan.js"/>
<svg id="graph" class="graph">
<g id="viewport">
<title>REST::Response</title>
<polygon fill="white" stroke="white" points="-4,4 -4,-464 489.278,-464 489.278,4 -4,4"/>
<!-- Node1 -->
<g id="node1" class="node"><title>Node1</title>
<polygon fill="#bfbfbf" stroke="black" points="151.734,-0.8 151.734,-111.2 236.266,-111.2 236.266,-0.8 151.734,-0.8"/>
<text text-anchor="middle" x="194" y="-98.2" font-family="Helvetica,sans-Serif" font-size="9.00">REST::Response</text>
<polyline fill="none" stroke="black" points="151.734,-92.4 236.266,-92.4 "/>
<text text-anchor="middle" x="194" y="-79.4" font-family="Helvetica,sans-Serif" font-size="9.00"> </text>
<polyline fill="none" stroke="black" points="151.734,-73.6 236.266,-73.6 "/>
<text text-anchor="start" x="159.734" y="-60.6" font-family="Helvetica,sans-Serif" font-size="9.00">+ Response()</text>
<text text-anchor="start" x="159.734" y="-49.8" font-family="Helvetica,sans-Serif" font-size="9.00">+ Response()</text>
<text text-anchor="start" x="159.734" y="-39" font-family="Helvetica,sans-Serif" font-size="9.00">+ ~Response()</text>
<text text-anchor="start" x="159.734" y="-28.2" font-family="Helvetica,sans-Serif" font-size="9.00">+ send()</text>
<text text-anchor="start" x="159.734" y="-17.4" font-family="Helvetica,sans-Serif" font-size="9.00">+ use_json()</text>
<text text-anchor="start" x="159.734" y="-6.6" font-family="Helvetica,sans-Serif" font-size="9.00">+ authorization()</text>
</g>
<!-- Node2 -->
<g id="node2" class="node"><title>Node2</title>
<polygon fill="white" stroke="#bfbfbf" points="-0.17749,-165.8 -0.17749,-222.2 38.1775,-222.2 38.1775,-165.8 -0.17749,-165.8"/>
<text text-anchor="middle" x="19" y="-209.2" font-family="Helvetica,sans-Serif" font-size="9.00">Value</text>
<polyline fill="none" stroke="#bfbfbf" points="-0.17749,-203.4 38.1775,-203.4 "/>
<text text-anchor="middle" x="19" y="-190.4" font-family="Helvetica,sans-Serif" font-size="9.00"> </text>
<polyline fill="none" stroke="#bfbfbf" points="-0.17749,-184.6 38.1775,-184.6 "/>
<text text-anchor="middle" x="19" y="-171.6" font-family="Helvetica,sans-Serif" font-size="9.00"> </text>
</g>
<!-- Node2&#45;&gt;Node1 -->
<g id="edge1" class="edge"><title>Node2&#45;&gt;Node1</title>
<path fill="none" stroke="#404040" d="M37.5566,-165.693C46.4229,-153.857 57.7142,-140.367 69.7271,-130 91.068,-111.582 117.693,-95.2374 140.818,-82.7078"/>
<polygon fill="none" stroke="#404040" points="140.902,-82.6636 144.333,-76.3211 151.507,-77.0488 148.076,-83.3913 140.902,-82.6636"/>
<text text-anchor="middle" x="82.6365" y="-132.4" font-family="Helvetica,sans-Serif" font-size="9.00"> +data</text>
</g>
<!-- Node3 -->
<g id="node3" class="node"><title>Node3</title>
<polygon fill="white" stroke="#bfbfbf" points="56.3303,-165.8 56.3303,-222.2 113.67,-222.2 113.67,-165.8 56.3303,-165.8"/>
<text text-anchor="middle" x="85" y="-209.2" font-family="Helvetica,sans-Serif" font-size="9.00">FastWriter</text>
<polyline fill="none" stroke="#bfbfbf" points="56.3303,-203.4 113.67,-203.4 "/>
<text text-anchor="middle" x="85" y="-190.4" font-family="Helvetica,sans-Serif" font-size="9.00"> </text>
<polyline fill="none" stroke="#bfbfbf" points="56.3303,-184.6 113.67,-184.6 "/>
<text text-anchor="middle" x="85" y="-171.6" font-family="Helvetica,sans-Serif" font-size="9.00"> </text>
</g>
<!-- Node3&#45;&gt;Node1 -->
<g id="edge2" class="edge"><title>Node3&#45;&gt;Node1</title>
<path fill="none" stroke="#404040" d="M89.8808,-165.719C92.8654,-154.023 97.5402,-140.635 104.729,-130 114.563,-115.452 128.138,-102.303 141.736,-91.3029"/>
<polygon fill="none" stroke="#404040" points="142.095,-91.0247 144.395,-84.1899 151.588,-83.6835 149.289,-90.5182 142.095,-91.0247"/>
<text text-anchor="middle" x="130.635" y="-132.4" font-family="Helvetica,sans-Serif" font-size="9.00"> +json_writer</text>
</g>
<!-- Node4 -->
<g id="node4" class="node"><title>Node4</title>
<polygon fill="white" stroke="#bfbfbf" points="131.238,-165.8 131.238,-222.2 188.762,-222.2 188.762,-165.8 131.238,-165.8"/>
<text text-anchor="middle" x="160" y="-209.2" font-family="Helvetica,sans-Serif" font-size="9.00">time_point</text>
<polyline fill="none" stroke="#bfbfbf" points="131.238,-203.4 188.762,-203.4 "/>
<text text-anchor="middle" x="160" y="-190.4" font-family="Helvetica,sans-Serif" font-size="9.00"> </text>
<polyline fill="none" stroke="#bfbfbf" points="131.238,-184.6 188.762,-184.6 "/>
<text text-anchor="middle" x="160" y="-171.6" font-family="Helvetica,sans-Serif" font-size="9.00"> </text>
</g>
<!-- Node4&#45;&gt;Node1 -->
<g id="edge3" class="edge"><title>Node4&#45;&gt;Node1</title>
<path fill="none" stroke="#404040" d="M158.461,-165.736C158.418,-154.541 159.132,-141.527 161.732,-130 162.28,-127.571 162.91,-125.124 163.608,-122.672"/>
<polygon fill="none" stroke="#404040" points="163.618,-122.64 161.661,-115.7 167.315,-111.224 169.272,-118.164 163.618,-122.64"/>
<text text-anchor="middle" x="185.634" y="-132.4" font-family="Helvetica,sans-Serif" font-size="9.00"> +start_time</text>
</g>
<!-- Node5 -->
<g id="node5" class="node"><title>Node5</title>
<polygon fill="white" stroke="#bfbfbf" points="212.5,-165.8 212.5,-222.2 241.5,-222.2 241.5,-165.8 212.5,-165.8"/>
<text text-anchor="middle" x="226.753" y="-209.2" font-family="Helvetica,sans-Serif" font-size="9.00">int</text>
<polyline fill="none" stroke="#bfbfbf" points="212.5,-203.4 241.005,-203.4 "/>
<text text-anchor="middle" x="226.753" y="-190.4" font-family="Helvetica,sans-Serif" font-size="9.00"> </text>
<polyline fill="none" stroke="#bfbfbf" points="212.5,-184.6 241.005,-184.6 "/>
<text text-anchor="middle" x="226.753" y="-171.6" font-family="Helvetica,sans-Serif" font-size="9.00"> </text>
</g>
<!-- Node5&#45;&gt;Node1 -->
<g id="edge4" class="edge"><title>Node5&#45;&gt;Node1</title>
<path fill="none" stroke="#404040" d="M220.322,-165.478C217.35,-153.23 213.709,-138.226 210.094,-123.329"/>
<polygon fill="none" stroke="#404040" points="210.044,-123.121 204.742,-118.233 207.214,-111.459 212.516,-116.347 210.044,-123.121"/>
<text text-anchor="middle" x="230.884" y="-132.4" font-family="Helvetica,sans-Serif" font-size="9.00"> +status</text>
</g>
<!-- Node6 -->
<g id="node6" class="node"><title>Node6</title>
<polygon fill="white" stroke="#bfbfbf" points="369.107,-160.4 369.107,-227.6 468.893,-227.6 468.893,-160.4 369.107,-160.4"/>
<text text-anchor="start" x="377.107" y="-214.6" font-family="Helvetica,sans-Serif" font-size="9.00">std::map&lt; std::string,</text>
<text text-anchor="middle" x="419" y="-203.8" font-family="Helvetica,sans-Serif" font-size="9.00"> std::string &gt;</text>
<polyline fill="none" stroke="#bfbfbf" points="369.107,-198 468.893,-198 "/>
<text text-anchor="middle" x="419" y="-185" font-family="Helvetica,sans-Serif" font-size="9.00"> </text>
<polyline fill="none" stroke="#bfbfbf" points="369.107,-179.2 468.893,-179.2 "/>
<text text-anchor="middle" x="419" y="-166.2" font-family="Helvetica,sans-Serif" font-size="9.00"> </text>
</g>
<!-- Node6&#45;&gt;Node1 -->
<g id="edge5" class="edge"><title>Node6&#45;&gt;Node1</title>
<path fill="none" stroke="#404040" d="M369.065,-162.817C332.89,-140.951 284.059,-111.436 247.161,-89.1327"/>
<polygon fill="none" stroke="#404040" points="246.876,-88.9605 239.672,-89.28 236.606,-82.753 243.81,-82.4335 246.876,-88.9605"/>
<text text-anchor="middle" x="354.14" y="-132.4" font-family="Helvetica,sans-Serif" font-size="9.00"> +headers</text>
</g>
<!-- Node7 -->
<g id="node7" class="node"><title>Node7</title>
<g id="a_node7"><a xlink:title="STL class. ">
<polygon fill="white" stroke="#bfbfbf" points="281.493,-286.8 281.493,-343.2 336.507,-343.2 336.507,-286.8 281.493,-286.8"/>
<text text-anchor="middle" x="309" y="-330.2" font-family="Helvetica,sans-Serif" font-size="9.00">std::string</text>
<polyline fill="none" stroke="#bfbfbf" points="281.493,-324.4 336.507,-324.4 "/>
<text text-anchor="middle" x="309" y="-311.4" font-family="Helvetica,sans-Serif" font-size="9.00"> </text>
<polyline fill="none" stroke="#bfbfbf" points="281.493,-305.6 336.507,-305.6 "/>
<text text-anchor="middle" x="309" y="-292.6" font-family="Helvetica,sans-Serif" font-size="9.00"> </text>
</a>
</g>
</g>
<!-- Node7&#45;&gt;Node1 -->
<g id="edge11" class="edge"><title>Node7&#45;&gt;Node1</title>
<path fill="none" stroke="#404040" d="M301.424,-286.451C289.06,-242.247 264.471,-157.639 250,-130 247.914,-126.016 245.609,-122.025 243.159,-118.077"/>
<polygon fill="none" stroke="#404040" points="242.972,-117.792 236.335,-114.972 236.386,-107.761 243.022,-110.581 242.972,-117.792"/>
<text text-anchor="middle" x="321.646" y="-195.8" font-family="Helvetica,sans-Serif" font-size="9.00"> +status_message</text>
<text text-anchor="middle" x="321.646" y="-185" font-family="Helvetica,sans-Serif" font-size="9.00">+raw</text>
</g>
<!-- Node7&#45;&gt;Node6 -->
<g id="edge6" class="edge"><title>Node7&#45;&gt;Node6</title>
<path fill="none" stroke="#404040" d="M333.5,-286.748C344.777,-274.273 358.369,-259.33 370.725,-246 373.546,-242.957 376.469,-239.822 379.419,-236.673"/>
<polygon fill="none" stroke="#404040" points="379.517,-236.569 380.712,-229.458 387.736,-227.826 386.541,-234.938 379.517,-236.569"/>
<text text-anchor="middle" x="393.137" y="-258.8" font-family="Helvetica,sans-Serif" font-size="9.00"> +elements</text>
<text text-anchor="middle" x="393.137" y="-248" font-family="Helvetica,sans-Serif" font-size="9.00">+keys</text>
</g>
<!-- Node8 -->
<g id="node8" class="node"><title>Node8</title>
<g id="a_node8"><a xlink:title="STL class. ">
<polygon fill="white" stroke="#bfbfbf" points="265.857,-392.4 265.857,-459.6 352.143,-459.6 352.143,-392.4 265.857,-392.4"/>
<text text-anchor="start" x="273.857" y="-446.6" font-family="Helvetica,sans-Serif" font-size="9.00">std::basic_string&lt;</text>
<text text-anchor="middle" x="309" y="-435.8" font-family="Helvetica,sans-Serif" font-size="9.00"> char &gt;</text>
<polyline fill="none" stroke="#bfbfbf" points="265.857,-430 352.143,-430 "/>
<text text-anchor="middle" x="309" y="-417" font-family="Helvetica,sans-Serif" font-size="9.00"> </text>
<polyline fill="none" stroke="#bfbfbf" points="265.857,-411.2 352.143,-411.2 "/>
<text text-anchor="middle" x="309" y="-398.2" font-family="Helvetica,sans-Serif" font-size="9.00"> </text>
</a>
</g>
</g>
<!-- Node8&#45;&gt;Node7 -->
<g id="edge7" class="edge"><title>Node8&#45;&gt;Node7</title>
<path fill="none" stroke="midnightblue" d="M309,-382.137C309,-369.146 309,-355.231 309,-343.532"/>
<polygon fill="none" stroke="midnightblue" points="305.5,-382.296 309,-392.296 312.5,-382.296 305.5,-382.296"/>
</g>
<!-- Node9 -->
<g id="node9" class="node"><title>Node9</title>
<g id="a_node9"><a xlink:title="STL class. ">
<polygon fill="white" stroke="#bfbfbf" points="377.894,-286.8 377.894,-343.2 460.106,-343.2 460.106,-286.8 377.894,-286.8"/>
<text text-anchor="middle" x="419" y="-330.2" font-family="Helvetica,sans-Serif" font-size="9.00">std::map&lt; K, T &gt;</text>
<polyline fill="none" stroke="#bfbfbf" points="377.894,-324.4 460.106,-324.4 "/>
<text text-anchor="middle" x="419" y="-311.4" font-family="Helvetica,sans-Serif" font-size="9.00"> </text>
<polyline fill="none" stroke="#bfbfbf" points="377.894,-305.6 460.106,-305.6 "/>
<text text-anchor="middle" x="419" y="-292.6" font-family="Helvetica,sans-Serif" font-size="9.00"> </text>
</a>
</g>
</g>
<!-- Node9&#45;&gt;Node6 -->
<g id="edge8" class="edge"><title>Node9&#45;&gt;Node6</title>
<path fill="none" stroke="orange" d="M419,-276.317C419,-260.69 419,-242.733 419,-227.675"/>
<polygon fill="orange" stroke="orange" points="415.5,-276.699 419,-286.699 422.5,-276.699 415.5,-276.699"/>
<text text-anchor="start" x="419" y="-258.8" font-family="Helvetica,sans-Serif" font-size="9.00"> &lt; std::string, std</text>
<text text-anchor="middle" x="452.139" y="-248" font-family="Helvetica,sans-Serif" font-size="9.00">::string &gt;</text>
</g>
<!-- Node10 -->
<g id="node10" class="node"><title>Node10</title>
<polygon fill="white" stroke="#bfbfbf" points="378.5,-397.8 378.5,-454.2 407.5,-454.2 407.5,-397.8 378.5,-397.8"/>
<text text-anchor="middle" x="392.501" y="-441.2" font-family="Helvetica,sans-Serif" font-size="9.00">K</text>
<polyline fill="none" stroke="#bfbfbf" points="378.5,-435.4 406.503,-435.4 "/>
<text text-anchor="middle" x="392.501" y="-422.4" font-family="Helvetica,sans-Serif" font-size="9.00"> </text>
<polyline fill="none" stroke="#bfbfbf" points="378.5,-416.6 406.503,-416.6 "/>
<text text-anchor="middle" x="392.501" y="-403.6" font-family="Helvetica,sans-Serif" font-size="9.00"> </text>
</g>
<!-- Node10&#45;&gt;Node9 -->
<g id="edge9" class="edge"><title>Node10&#45;&gt;Node9</title>
<path fill="none" stroke="#404040" d="M393.561,-397.692C394.286,-386.491 395.771,-373.484 398.738,-362 399.369,-359.558 400.116,-357.08 400.945,-354.607"/>
<polygon fill="none" stroke="#404040" points="401.015,-354.424 399.414,-347.393 405.288,-343.211 406.889,-350.242 401.015,-354.424"/>
<text text-anchor="middle" x="411.131" y="-364.4" font-family="Helvetica,sans-Serif" font-size="9.00"> +keys</text>
</g>
<!-- Node11 -->
<g id="node11" class="node"><title>Node11</title>
<polygon fill="white" stroke="#bfbfbf" points="427.5,-397.8 427.5,-454.2 456.5,-454.2 456.5,-397.8 427.5,-397.8"/>
<text text-anchor="middle" x="441.749" y="-441.2" font-family="Helvetica,sans-Serif" font-size="9.00">T</text>
<polyline fill="none" stroke="#bfbfbf" points="427.5,-435.4 455.998,-435.4 "/>
<text text-anchor="middle" x="441.749" y="-422.4" font-family="Helvetica,sans-Serif" font-size="9.00"> </text>
<polyline fill="none" stroke="#bfbfbf" points="427.5,-416.6 455.998,-416.6 "/>
<text text-anchor="middle" x="441.749" y="-403.6" font-family="Helvetica,sans-Serif" font-size="9.00"> </text>
</g>
<!-- Node11&#45;&gt;Node9 -->
<g id="edge10" class="edge"><title>Node11&#45;&gt;Node9</title>
<path fill="none" stroke="#404040" d="M436.255,-397.776C433.539,-384.9 430.244,-369.289 427.265,-355.171"/>
<polygon fill="none" stroke="#404040" points="427.229,-354.996 422.076,-349.951 424.751,-343.255 429.904,-348.3 427.229,-354.996"/>
<text text-anchor="middle" x="453.137" y="-364.4" font-family="Helvetica,sans-Serif" font-size="9.00"> +elements</text>
</g>
</g>
</svg>
        <g id="navigator" transform="translate(0 0)" fill="#404254">
                <rect fill="#f2f5e9" fill-opacity="0.5" stroke="#606060" stroke-width=".5" x="0" y="0" width="60" height="60"/>
                <use id="zoomplus" xlink:href="#zoomPlus" x="17" y="9" onmousedown="handleZoom(evt,'in')"/>
                <use id="zoomminus" xlink:href="#zoomMin" x="42" y="9" onmousedown="handleZoom(evt,'out')"/>
                <use id="reset" xlink:href="#resetDef" x="30" y="36" onmousedown="handleReset()"/>
                <g id="arrowUp" xlink:href="#dirArrow" transform="translate(30 24)" onmousedown="handlePan(0,-1)">
                  <use xlink:href="#rim" fill="#404040">
                        <set attributeName="fill" to="#808080" begin="arrowUp.mouseover" end="arrowUp.mouseout"/>
                  </use>
                  <path fill="none" stroke="white" stroke-width="1.5" d="M0,-3.0v7 M-2.5,-0.5L0,-3.0L2.5,-0.5"/>
                </g>
                <g id="arrowRight" xlink:href="#dirArrow" transform="rotate(90) translate(36 -43)" onmousedown="handlePan(1,0)">
                  <use xlink:href="#rim" fill="#404040">
                        <set attributeName="fill" to="#808080" begin="arrowRight.mouseover" end="arrowRight.mouseout"/>
                  </use>
                  <path fill="none" stroke="white" stroke-width="1.5" d="M0,-3.0v7 M-2.5,-0.5L0,-3.0L2.5,-0.5"/>
                </g>
                <g id="arrowDown" xlink:href="#dirArrow" transform="rotate(180) translate(-30 -48)" onmousedown="handlePan(0,1)">
                  <use xlink:href="#rim" fill="#404040">
                        <set attributeName="fill" to="#808080" begin="arrowDown.mouseover" end="arrowDown.mouseout"/>
                  </use>
                  <path fill="none" stroke="white" stroke-width="1.5" d="M0,-3.0v7 M-2.5,-0.5L0,-3.0L2.5,-0.5"/>
                </g>
                <g id="arrowLeft" xlink:href="#dirArrow" transform="rotate(270) translate(-36 17)" onmousedown="handlePan(-1,0)">
                  <use xlink:href="#rim" fill="#404040">
                        <set attributeName="fill" to="#808080" begin="arrowLeft.mouseover" end="arrowLeft.mouseout"/>
                  </use>
                  <path fill="none" stroke="white" stroke-width="1.5" d="M0,-3.0v7 M-2.5,-0.5L0,-3.0L2.5,-0.5"/>
                </g>
        </g>
        <svg viewBox="0 0 15 15" width="100%" height="30px" preserveAspectRatio="xMaxYMin meet">
         <g id="arrow_out" transform="scale(0.3 0.3)">
          <a xlink:href="class_r_e_s_t_1_1_response__coll__graph_org.svg" target="_base">
           <rect id="button" ry="5" rx="5" y="6" x="6" height="38" width="38"
                fill="#f2f5e9" fill-opacity="0.5" stroke="#606060" stroke-width="1.0"/>
           <path id="arrow"
             d="M 11.500037,31.436501 C 11.940474,20.09759 22.043105,11.32322 32.158766,21.979434 L 37.068811,17.246167 C 37.068811,17.246167 37.088388,32 37.088388,32 L 22.160133,31.978069 C 22.160133,31.978069 26.997745,27.140456 26.997745,27.140456 C 18.528582,18.264221 13.291696,25.230495 11.500037,31.436501 z"
             style="fill:#404040;"/>
          </a>
         </g>
        </svg>
</svg>
