<?xml version="1.0" encoding="UTF-8" standalone="no"?>
<!DOCTYPE svg PUBLIC "-//W3C//DTD SVG 1.1//EN"
 "http://www.w3.org/Graphics/SVG/1.1/DTD/svg11.dtd">
<!-- Generated by graphviz version 2.34.0 (20131023.0619)
 -->
<!-- Title: REST::HTTP::NotAuthorized Pages: 1 -->
<svg width="136pt" height="368pt"
 viewBox="0.00 0.00 136.00 368.00" xmlns="http://www.w3.org/2000/svg" xmlns:xlink="http://www.w3.org/1999/xlink">
<g id="graph0" class="graph" transform="scale(1 1) rotate(0) translate(4 364)">
<title>REST::HTTP::NotAuthorized</title>
<polygon fill="white" stroke="white" points="-4,4 -4,-364 132,-364 132,4 -4,4"/>
<!-- Node1 -->
<g id="node1" class="node"><title>Node1</title>
<polygon fill="#bfbfbf" stroke="black" points="-0.768555,-0.4 -0.768555,-67.6 128.769,-67.6 128.769,-0.4 -0.768555,-0.4"/>
<text text-anchor="middle" x="64" y="-54.6" font-family="Helvetica,sans-Serif" font-size="9.00">REST::HTTP::NotAuthorized</text>
<polyline fill="none" stroke="black" points="-0.768555,-48.8 128.769,-48.8 "/>
<text text-anchor="middle" x="64" y="-35.8" font-family="Helvetica,sans-Serif" font-size="9.00"> </text>
<polyline fill="none" stroke="black" points="-0.768555,-30 128.769,-30 "/>
<text text-anchor="start" x="7.23145" y="-17" font-family="Helvetica,sans-Serif" font-size="9.00">+ what()</text>
<text text-anchor="start" x="7.23145" y="-6.2" font-family="Helvetica,sans-Serif" font-size="9.00">+ code()</text>
</g>
<!-- Node2 -->
<g id="node2" class="node"><title>Node2</title>
<polygon fill="white" stroke="#bfbfbf" points="17.7478,-104.8 17.7478,-161.2 110.252,-161.2 110.252,-104.8 17.7478,-104.8"/>
<text text-anchor="middle" x="64" y="-148.2" font-family="Helvetica,sans-Serif" font-size="9.00">REST::HTTP::Error</text>
<polyline fill="none" stroke="#bfbfbf" points="17.7478,-142.4 110.252,-142.4 "/>
<text text-anchor="middle" x="64" y="-129.4" font-family="Helvetica,sans-Serif" font-size="9.00"> </text>
<polyline fill="none" stroke="#bfbfbf" points="17.7478,-123.6 110.252,-123.6 "/>
<text text-anchor="middle" x="64" y="-110.6" font-family="Helvetica,sans-Serif" font-size="9.00"> </text>
</g>
<!-- Node2&#45;&gt;Node1 -->
<g id="edge1" class="edge"><title>Node2&#45;&gt;Node1</title>
<path fill="none" stroke="midnightblue" d="M64,-94.687C64,-85.8706 64,-76.5326 64,-67.9265"/>
<polygon fill="none" stroke="midnightblue" points="60.5001,-94.7219 64,-104.722 67.5001,-94.722 60.5001,-94.7219"/>
</g>
<!-- Node3 -->
<g id="node3" class="node"><title>Node3</title>
<polygon fill="white" stroke="#bfbfbf" points="22.2346,-198.4 22.2346,-265.6 105.765,-265.6 105.765,-198.4 22.2346,-198.4"/>
<text text-anchor="middle" x="64" y="-252.6" font-family="Helvetica,sans-Serif" font-size="9.00">REST::Exception</text>
<polyline fill="none" stroke="#bfbfbf" points="22.2346,-246.8 105.765,-246.8 "/>
<text text-anchor="middle" x="64" y="-233.8" font-family="Helvetica,sans-Serif" font-size="9.00"> </text>
<polyline fill="none" stroke="#bfbfbf" points="22.2346,-228 105.765,-228 "/>
<text text-anchor="start" x="30.2346" y="-215" font-family="Helvetica,sans-Serif" font-size="9.00">+ what()</text>
<text text-anchor="start" x="30.2346" y="-204.2" font-family="Helvetica,sans-Serif" font-size="9.00">+ code()</text>
</g>
<!-- Node3&#45;&gt;Node2 -->
<g id="edge2" class="edge"><title>Node3&#45;&gt;Node2</title>
<path fill="none" stroke="midnightblue" d="M64,-188.08C64,-178.991 64,-169.638 64,-161.318"/>
<polygon fill="none" stroke="midnightblue" points="60.5001,-188.16 64,-198.16 67.5001,-188.16 60.5001,-188.16"/>
</g>
<!-- Node4 -->
<g id="node4" class="node"><title>Node4</title>
<g id="a_node4"><a xlink:title="STL class. ">
<polygon fill="white" stroke="#bfbfbf" points="28.2332,-302.8 28.2332,-359.2 99.7668,-359.2 99.7668,-302.8 28.2332,-302.8"/>
<text text-anchor="middle" x="64" y="-346.2" font-family="Helvetica,sans-Serif" font-size="9.00">std::exception</text>
<polyline fill="none" stroke="#bfbfbf" points="28.2332,-340.4 99.7668,-340.4 "/>
<text text-anchor="middle" x="64" y="-327.4" font-family="Helvetica,sans-Serif" font-size="9.00"> </text>
<polyline fill="none" stroke="#bfbfbf" points="28.2332,-321.6 99.7668,-321.6 "/>
<text text-anchor="middle" x="64" y="-308.6" font-family="Helvetica,sans-Serif" font-size="9.00"> </text>
</a>
</g>
</g>
<!-- Node4&#45;&gt;Node3 -->
<g id="edge3" class="edge"><title>Node4&#45;&gt;Node3</title>
<path fill="none" stroke="midnightblue" d="M64,-292.687C64,-283.871 64,-274.533 64,-265.926"/>
<polygon fill="none" stroke="midnightblue" points="60.5001,-292.722 64,-302.722 67.5001,-292.722 60.5001,-292.722"/>
</g>
</g>
</svg>
