<?xml version="1.0" encoding="UTF-8" standalone="no"?>
<!DOCTYPE svg PUBLIC "-//W3C//DTD SVG 1.1//EN"
 "http://www.w3.org/Graphics/SVG/1.1/DTD/svg11.dtd">
<!-- Generated by graphviz version 2.34.0 (20131023.0619)
 -->
<!-- Title: REST::Dispatchers::LeastConnections Pages: 1 -->
<svg width="108pt" height="268pt"
 viewBox="0.00 0.00 108.00 268.00" xmlns="http://www.w3.org/2000/svg" xmlns:xlink="http://www.w3.org/1999/xlink">
<g id="graph0" class="graph" transform="scale(1 1) rotate(0) translate(4 264)">
<title>REST::Dispatchers::LeastConnections</title>
<polygon fill="white" stroke="white" points="-4,4 -4,-264 104,-264 104,4 -4,4"/>
<!-- Node1 -->
<g id="node1" class="node"><title>Node1</title>
<polygon fill="#bfbfbf" stroke="black" points="-0.899414,-0.4 -0.899414,-67.6 100.899,-67.6 100.899,-0.4 -0.899414,-0.4"/>
<text text-anchor="start" x="7.10059" y="-54.6" font-family="Helvetica,sans-Serif" font-size="9.00">REST::Dispatchers::</text>
<text text-anchor="middle" x="50" y="-43.8" font-family="Helvetica,sans-Serif" font-size="9.00">LeastConnections</text>
<polyline fill="none" stroke="black" points="-0.899414,-38 100.899,-38 "/>
<text text-anchor="middle" x="50" y="-25" font-family="Helvetica,sans-Serif" font-size="9.00"> </text>
<polyline fill="none" stroke="black" points="-0.899414,-19.2 100.899,-19.2 "/>
<text text-anchor="start" x="7.10059" y="-6.2" font-family="Helvetica,sans-Serif" font-size="9.00">+ LeastConnections()</text>
</g>
<!-- Node2 -->
<g id="node2" class="node"><title>Node2</title>
<polygon fill="white" stroke="#bfbfbf" points="4.73438,-105.2 4.73438,-258.8 95.2656,-258.8 95.2656,-105.2 4.73438,-105.2"/>
<text text-anchor="middle" x="50" y="-245.8" font-family="Helvetica,sans-Serif" font-size="9.00">REST::Dispatcher</text>
<polyline fill="none" stroke="#bfbfbf" points="4.73438,-240 95.2656,-240 "/>
<text text-anchor="start" x="12.7344" y="-227" font-family="Helvetica,sans-Serif" font-size="9.00"># workers_count</text>
<text text-anchor="start" x="12.7344" y="-216.2" font-family="Helvetica,sans-Serif" font-size="9.00"># workers</text>
<text text-anchor="start" x="12.7344" y="-205.4" font-family="Helvetica,sans-Serif" font-size="9.00"># requests</text>
<text text-anchor="start" x="12.7344" y="-194.6" font-family="Helvetica,sans-Serif" font-size="9.00"># requests_count</text>
<text text-anchor="start" x="12.7344" y="-183.8" font-family="Helvetica,sans-Serif" font-size="9.00"># requests_empty</text>
<text text-anchor="start" x="12.7344" y="-173" font-family="Helvetica,sans-Serif" font-size="9.00"># requests_lock</text>
<polyline fill="none" stroke="#bfbfbf" points="4.73438,-167.2 95.2656,-167.2 "/>
<text text-anchor="start" x="12.7344" y="-154.2" font-family="Helvetica,sans-Serif" font-size="9.00">+ Dispatcher()</text>
<text text-anchor="start" x="12.7344" y="-143.4" font-family="Helvetica,sans-Serif" font-size="9.00">+ ~Dispatcher()</text>
<text text-anchor="start" x="12.7344" y="-132.6" font-family="Helvetica,sans-Serif" font-size="9.00">+ dispatch()</text>
<text text-anchor="start" x="12.7344" y="-121.8" font-family="Helvetica,sans-Serif" font-size="9.00">+ next()</text>
<text text-anchor="start" x="12.7344" y="-111" font-family="Helvetica,sans-Serif" font-size="9.00"># next_worker_id()</text>
</g>
<!-- Node2&#45;&gt;Node1 -->
<g id="edge1" class="edge"><title>Node2&#45;&gt;Node1</title>
<path fill="none" stroke="midnightblue" d="M50,-94.8799C50,-85.2436 50,-75.9228 50,-67.619"/>
<polygon fill="none" stroke="midnightblue" points="46.5001,-95.0066 50,-105.007 53.5001,-95.0066 46.5001,-95.0066"/>
</g>
</g>
</svg>
