<?xml version="1.0" encoding="UTF-8" standalone="no"?>
<!DOCTYPE svg PUBLIC "-//W3C//DTD SVG 1.1//EN"
 "http://www.w3.org/Graphics/SVG/1.1/DTD/svg11.dtd">
<!-- Generated by graphviz version 2.34.0 (20131023.0619)
 -->
<!-- Title: REST::HTTP::MethodNotAllowed Pages: 1 -->
<svg width="156pt" height="368pt"
 viewBox="0.00 0.00 156.00 368.00" xmlns="http://www.w3.org/2000/svg" xmlns:xlink="http://www.w3.org/1999/xlink">
<g id="graph0" class="graph" transform="scale(1 1) rotate(0) translate(4 364)">
<title>REST::HTTP::MethodNotAllowed</title>
<polygon fill="white" stroke="white" points="-4,4 -4,-364 152,-364 152,4 -4,4"/>
<!-- Node1 -->
<g id="node1" class="node"><title>Node1</title>
<polygon fill="#bfbfbf" stroke="black" points="-0.0234375,-0.4 -0.0234375,-67.6 148.023,-67.6 148.023,-0.4 -0.0234375,-0.4"/>
<text text-anchor="middle" x="74" y="-54.6" font-family="Helvetica,sans-Serif" font-size="9.00">REST::HTTP::MethodNotAllowed</text>
<polyline fill="none" stroke="black" points="-0.0234375,-48.8 148.023,-48.8 "/>
<text text-anchor="middle" x="74" y="-35.8" font-family="Helvetica,sans-Serif" font-size="9.00"> </text>
<polyline fill="none" stroke="black" points="-0.0234375,-30 148.023,-30 "/>
<text text-anchor="start" x="7.97656" y="-17" font-family="Helvetica,sans-Serif" font-size="9.00">+ what()</text>
<text text-anchor="start" x="7.97656" y="-6.2" font-family="Helvetica,sans-Serif" font-size="9.00">+ code()</text>
</g>
<!-- Node2 -->
<g id="node2" class="node"><title>Node2</title>
<polygon fill="white" stroke="#bfbfbf" points="27.7478,-104.8 27.7478,-161.2 120.252,-161.2 120.252,-104.8 27.7478,-104.8"/>
<text text-anchor="middle" x="74" y="-148.2" font-family="Helvetica,sans-Serif" font-size="9.00">REST::HTTP::Error</text>
<polyline fill="none" stroke="#bfbfbf" points="27.7478,-142.4 120.252,-142.4 "/>
<text text-anchor="middle" x="74" y="-129.4" font-family="Helvetica,sans-Serif" font-size="9.00"> </text>
<polyline fill="none" stroke="#bfbfbf" points="27.7478,-123.6 120.252,-123.6 "/>
<text text-anchor="middle" x="74" y="-110.6" font-family="Helvetica,sans-Serif" font-size="9.00"> </text>
</g>
<!-- Node2&#45;&gt;Node1 -->
<g id="edge1" class="edge"><title>Node2&#45;&gt;Node1</title>
<path fill="none" stroke="midnightblue" d="M74,-94.687C74,-85.8706 74,-76.5326 74,-67.9265"/>
<polygon fill="none" stroke="midnightblue" points="70.5001,-94.7219 74,-104.722 77.5001,-94.722 70.5001,-94.7219"/>
</g>
<!-- Node3 -->
<g id="node3" class="node"><title>Node3</title>
<polygon fill="white" stroke="#bfbfbf" points="32.2346,-198.4 32.2346,-265.6 115.765,-265.6 115.765,-198.4 32.2346,-198.4"/>
<text text-anchor="middle" x="74" y="-252.6" font-family="Helvetica,sans-Serif" font-size="9.00">REST::Exception</text>
<polyline fill="none" stroke="#bfbfbf" points="32.2346,-246.8 115.765,-246.8 "/>
<text text-anchor="middle" x="74" y="-233.8" font-family="Helvetica,sans-Serif" font-size="9.00"> </text>
<polyline fill="none" stroke="#bfbfbf" points="32.2346,-228 115.765,-228 "/>
<text text-anchor="start" x="40.2346" y="-215" font-family="Helvetica,sans-Serif" font-size="9.00">+ what()</text>
<text text-anchor="start" x="40.2346" y="-204.2" font-family="Helvetica,sans-Serif" font-size="9.00">+ code()</text>
</g>
<!-- Node3&#45;&gt;Node2 -->
<g id="edge2" class="edge"><title>Node3&#45;&gt;Node2</title>
<path fill="none" stroke="midnightblue" d="M74,-188.08C74,-178.991 74,-169.638 74,-161.318"/>
<polygon fill="none" stroke="midnightblue" points="70.5001,-188.16 74,-198.16 77.5001,-188.16 70.5001,-188.16"/>
</g>
<!-- Node4 -->
<g id="node4" class="node"><title>Node4</title>
<g id="a_node4"><a xlink:title="STL class. ">
<polygon fill="white" stroke="#bfbfbf" points="38.2332,-302.8 38.2332,-359.2 109.767,-359.2 109.767,-302.8 38.2332,-302.8"/>
<text text-anchor="middle" x="74" y="-346.2" font-family="Helvetica,sans-Serif" font-size="9.00">std::exception</text>
<polyline fill="none" stroke="#bfbfbf" points="38.2332,-340.4 109.767,-340.4 "/>
<text text-anchor="middle" x="74" y="-327.4" font-family="Helvetica,sans-Serif" font-size="9.00"> </text>
<polyline fill="none" stroke="#bfbfbf" points="38.2332,-321.6 109.767,-321.6 "/>
<text text-anchor="middle" x="74" y="-308.6" font-family="Helvetica,sans-Serif" font-size="9.00"> </text>
</a>
</g>
</g>
<!-- Node4&#45;&gt;Node3 -->
<g id="edge3" class="edge"><title>Node4&#45;&gt;Node3</title>
<path fill="none" stroke="midnightblue" d="M74,-292.687C74,-283.871 74,-274.533 74,-265.926"/>
<polygon fill="none" stroke="midnightblue" points="70.5001,-292.722 74,-302.722 77.5001,-292.722 70.5001,-292.722"/>
</g>
</g>
</svg>
