<?xml version="1.0" encoding="UTF-8" standalone="no"?>
<!DOCTYPE svg PUBLIC "-//W3C//DTD SVG 1.1//EN"
 "http://www.w3.org/Graphics/SVG/1.1/DTD/svg11.dtd">
<!-- Generated by graphviz version 2.34.0 (20131023.0619)
 -->
<!-- Title: REST::Server Pages: 1 -->
<svg width="119pt" height="204pt"
 viewBox="0.00 0.00 119.28 204.00" xmlns="http://www.w3.org/2000/svg" xmlns:xlink="http://www.w3.org/1999/xlink">
<g id="graph0" class="graph" transform="scale(1 1) rotate(0) translate(4 200)">
<title>REST::Server</title>
<polygon fill="white" stroke="white" points="-4,4 -4,-200 115.28,-200 115.28,4 -4,4"/>
<!-- Node1 -->
<g id="node1" class="node"><title>Node1</title>
<polygon fill="#bfbfbf" stroke="black" points="-0.25708,-0.6 -0.25708,-89.4 70.2571,-89.4 70.2571,-0.6 -0.25708,-0.6"/>
<text text-anchor="middle" x="35" y="-76.4" font-family="Helvetica,sans-Serif" font-size="9.00">REST::Server</text>
<polyline fill="none" stroke="black" points="-0.25708,-70.6 70.2571,-70.6 "/>
<text text-anchor="middle" x="35" y="-57.6" font-family="Helvetica,sans-Serif" font-size="9.00"> </text>
<polyline fill="none" stroke="black" points="-0.25708,-51.8 70.2571,-51.8 "/>
<text text-anchor="start" x="7.74292" y="-38.8" font-family="Helvetica,sans-Serif" font-size="9.00">+ Server()</text>
<text text-anchor="start" x="7.74292" y="-28" font-family="Helvetica,sans-Serif" font-size="9.00">+ ~Server()</text>
<text text-anchor="start" x="7.74292" y="-17.2" font-family="Helvetica,sans-Serif" font-size="9.00">+ run()</text>
<text text-anchor="start" x="7.74292" y="-6.4" font-family="Helvetica,sans-Serif" font-size="9.00">+ router()</text>
</g>
<!-- Node2 -->
<g id="node2" class="node"><title>Node2</title>
<polygon fill="white" stroke="#bfbfbf" points="20.5,-138.8 20.5,-195.2 49.5,-195.2 49.5,-138.8 20.5,-138.8"/>
<text text-anchor="middle" x="34.7527" y="-182.2" font-family="Helvetica,sans-Serif" font-size="9.00">int</text>
<polyline fill="none" stroke="#bfbfbf" points="20.5,-176.4 49.0054,-176.4 "/>
<text text-anchor="middle" x="34.7527" y="-163.4" font-family="Helvetica,sans-Serif" font-size="9.00"> </text>
<polyline fill="none" stroke="#bfbfbf" points="20.5,-157.6 49.0054,-157.6 "/>
<text text-anchor="middle" x="34.7527" y="-144.6" font-family="Helvetica,sans-Serif" font-size="9.00"> </text>
</g>
<!-- Node2&#45;&gt;Node1 -->
<g id="edge1" class="edge"><title>Node2&#45;&gt;Node1</title>
<path fill="none" stroke="#404040" d="M35,-138.77C35,-127.765 35,-114.639 35,-101.774"/>
<polygon fill="none" stroke="#404040" points="35.0001,-101.596 31,-95.5959 35,-89.5959 39,-95.5958 35.0001,-101.596"/>
<text text-anchor="middle" x="73.1401" y="-110.4" font-family="Helvetica,sans-Serif" font-size="9.00"> +BACKLOG_SIZE</text>
</g>
</g>
</svg>
