<?xml version="1.0" encoding="UTF-8" standalone="no"?>
<!DOCTYPE svg PUBLIC "-//W3C//DTD SVG 1.1//EN"
 "http://www.w3.org/Graphics/SVG/1.1/DTD/svg11.dtd">
<!-- Generated by graphviz version 2.34.0 (20131023.0619)
 -->
<!-- Title: REST::Service Pages: 1 -->
<svg width="572pt" height="246pt"
 viewBox="0.00 0.00 572.00 246.00" xmlns="http://www.w3.org/2000/svg" xmlns:xlink="http://www.w3.org/1999/xlink">
<g id="graph0" class="graph" transform="scale(1 1) rotate(0) translate(4 242)">
<title>REST::Service</title>
<polygon fill="white" stroke="white" points="-4,4 -4,-242 568,-242 568,4 -4,4"/>
<!-- Node1 -->
<g id="node1" class="node"><title>Node1</title>
<polygon fill="#bfbfbf" stroke="black" points="238.095,-0.4 238.095,-121.6 351.905,-121.6 351.905,-0.4 238.095,-0.4"/>
<text text-anchor="middle" x="295" y="-108.6" font-family="Helvetica,sans-Serif" font-size="9.00">REST::Service</text>
<polyline fill="none" stroke="black" points="238.095,-102.8 351.905,-102.8 "/>
<text text-anchor="middle" x="295" y="-89.8" font-family="Helvetica,sans-Serif" font-size="9.00"> </text>
<polyline fill="none" stroke="black" points="238.095,-84 351.905,-84 "/>
<text text-anchor="start" x="246.095" y="-71" font-family="Helvetica,sans-Serif" font-size="9.00">+ Service()</text>
<text text-anchor="start" x="246.095" y="-60.2" font-family="Helvetica,sans-Serif" font-size="9.00">+ ensure_session()</text>
<text text-anchor="start" x="246.095" y="-49.4" font-family="Helvetica,sans-Serif" font-size="9.00">+ ensure_authorization()</text>
<text text-anchor="start" x="246.095" y="-38.6" font-family="Helvetica,sans-Serif" font-size="9.00"># make_action()</text>
<text text-anchor="start" x="246.095" y="-27.8" font-family="Helvetica,sans-Serif" font-size="9.00"># before()</text>
<text text-anchor="start" x="246.095" y="-17" font-family="Helvetica,sans-Serif" font-size="9.00"># after()</text>
<text text-anchor="start" x="246.095" y="-6.2" font-family="Helvetica,sans-Serif" font-size="9.00"># method()</text>
</g>
<!-- Node2 -->
<g id="node2" class="node"><title>Node2</title>
<polygon fill="white" stroke="#bfbfbf" points="-0.536133,-175.8 -0.536133,-232.2 142.536,-232.2 142.536,-175.8 -0.536133,-175.8"/>
<text text-anchor="middle" x="71" y="-219.2" font-family="Helvetica,sans-Serif" font-size="9.00">shared_ptr&lt; REST::Response &gt;</text>
<polyline fill="none" stroke="#bfbfbf" points="-0.536133,-213.4 142.536,-213.4 "/>
<text text-anchor="middle" x="71" y="-200.4" font-family="Helvetica,sans-Serif" font-size="9.00"> </text>
<polyline fill="none" stroke="#bfbfbf" points="-0.536133,-194.6 142.536,-194.6 "/>
<text text-anchor="middle" x="71" y="-181.6" font-family="Helvetica,sans-Serif" font-size="9.00"> </text>
</g>
<!-- Node2&#45;&gt;Node1 -->
<g id="edge1" class="edge"><title>Node2&#45;&gt;Node1</title>
<path fill="none" stroke="#404040" d="M114.455,-175.647C146.531,-155.456 190.794,-127.594 227.465,-104.511"/>
<polygon fill="none" stroke="#404040" points="227.928,-104.22 230.875,-97.6381 238.083,-97.827 235.136,-104.409 227.928,-104.22"/>
<text text-anchor="middle" x="192.39" y="-142.4" font-family="Helvetica,sans-Serif" font-size="9.00"> +response</text>
</g>
<!-- Node3 -->
<g id="node3" class="node"><title>Node3</title>
<polygon fill="white" stroke="#bfbfbf" points="160.718,-175.8 160.718,-232.2 295.282,-232.2 295.282,-175.8 160.718,-175.8"/>
<text text-anchor="middle" x="228" y="-219.2" font-family="Helvetica,sans-Serif" font-size="9.00">shared_ptr&lt; REST::Session &gt;</text>
<polyline fill="none" stroke="#bfbfbf" points="160.718,-213.4 295.282,-213.4 "/>
<text text-anchor="middle" x="228" y="-200.4" font-family="Helvetica,sans-Serif" font-size="9.00"> </text>
<polyline fill="none" stroke="#bfbfbf" points="160.718,-194.6 295.282,-194.6 "/>
<text text-anchor="middle" x="228" y="-181.6" font-family="Helvetica,sans-Serif" font-size="9.00"> </text>
</g>
<!-- Node3&#45;&gt;Node1 -->
<g id="edge2" class="edge"><title>Node3&#45;&gt;Node1</title>
<path fill="none" stroke="#404040" d="M241.077,-175.479C246.93,-163.161 254.129,-148.013 261.337,-132.844"/>
<polygon fill="none" stroke="#404040" points="261.418,-132.673 260.38,-125.537 266.568,-121.834 267.606,-128.97 261.418,-132.673"/>
<text text-anchor="middle" x="277.011" y="-142.4" font-family="Helvetica,sans-Serif" font-size="9.00"> #session</text>
</g>
<!-- Node4 -->
<g id="node4" class="node"><title>Node4</title>
<polygon fill="white" stroke="#bfbfbf" points="313.603,-170.4 313.603,-237.6 410.397,-237.6 410.397,-170.4 313.603,-170.4"/>
<text text-anchor="start" x="321.603" y="-224.6" font-family="Helvetica,sans-Serif" font-size="9.00">shared_ptr&lt; params</text>
<text text-anchor="middle" x="362" y="-213.8" font-family="Helvetica,sans-Serif" font-size="9.00">_map &gt;</text>
<polyline fill="none" stroke="#bfbfbf" points="313.603,-208 410.397,-208 "/>
<text text-anchor="middle" x="362" y="-195" font-family="Helvetica,sans-Serif" font-size="9.00"> </text>
<polyline fill="none" stroke="#bfbfbf" points="313.603,-189.2 410.397,-189.2 "/>
<text text-anchor="middle" x="362" y="-176.2" font-family="Helvetica,sans-Serif" font-size="9.00"> </text>
</g>
<!-- Node4&#45;&gt;Node1 -->
<g id="edge3" class="edge"><title>Node4&#45;&gt;Node1</title>
<path fill="none" stroke="#404040" d="M346.46,-170.297C341.085,-158.984 334.833,-145.827 328.577,-132.663"/>
<polygon fill="none" stroke="#404040" points="328.491,-132.482 322.303,-128.779 323.341,-121.643 329.529,-125.346 328.491,-132.482"/>
<text text-anchor="middle" x="355.883" y="-142.4" font-family="Helvetica,sans-Serif" font-size="9.00"> +params</text>
</g>
<!-- Node5 -->
<g id="node5" class="node"><title>Node5</title>
<polygon fill="white" stroke="#bfbfbf" points="427.966,-175.8 427.966,-232.2 564.034,-232.2 564.034,-175.8 427.966,-175.8"/>
<text text-anchor="middle" x="496" y="-219.2" font-family="Helvetica,sans-Serif" font-size="9.00">shared_ptr&lt; REST::Request &gt;</text>
<polyline fill="none" stroke="#bfbfbf" points="427.966,-213.4 564.034,-213.4 "/>
<text text-anchor="middle" x="496" y="-200.4" font-family="Helvetica,sans-Serif" font-size="9.00"> </text>
<polyline fill="none" stroke="#bfbfbf" points="427.966,-194.6 564.034,-194.6 "/>
<text text-anchor="middle" x="496" y="-181.6" font-family="Helvetica,sans-Serif" font-size="9.00"> </text>
</g>
<!-- Node5&#45;&gt;Node1 -->
<g id="edge4" class="edge"><title>Node5&#45;&gt;Node1</title>
<path fill="none" stroke="#404040" d="M456.768,-175.479C429.861,-156.604 393.48,-131.083 362.034,-109.024"/>
<polygon fill="none" stroke="#404040" points="361.84,-108.888 354.631,-108.717 352.016,-101.996 359.225,-102.167 361.84,-108.888"/>
<text text-anchor="middle" x="438.888" y="-142.4" font-family="Helvetica,sans-Serif" font-size="9.00"> +request</text>
</g>
</g>
</svg>
