<?xml version="1.0" encoding="UTF-8" standalone="no"?>
<!DOCTYPE svg PUBLIC "-//W3C//DTD SVG 1.1//EN"
 "http://www.w3.org/Graphics/SVG/1.1/DTD/svg11.dtd">
<!-- Generated by graphviz version 2.34.0 (20131023.0619)
 -->
<!-- Title: REST::HTTP::NotImplemented Pages: 1 -->
<svg width="146pt" height="368pt"
 viewBox="0.00 0.00 146.00 368.00" xmlns="http://www.w3.org/2000/svg" xmlns:xlink="http://www.w3.org/1999/xlink">
<g id="graph0" class="graph" transform="scale(1 1) rotate(0) translate(4 364)">
<title>REST::HTTP::NotImplemented</title>
<polygon fill="white" stroke="white" points="-4,4 -4,-364 142,-364 142,4 -4,4"/>
<!-- Node1 -->
<g id="node1" class="node"><title>Node1</title>
<polygon fill="#bfbfbf" stroke="black" points="-0.268555,-0.4 -0.268555,-67.6 138.269,-67.6 138.269,-0.4 -0.268555,-0.4"/>
<text text-anchor="middle" x="69" y="-54.6" font-family="Helvetica,sans-Serif" font-size="9.00">REST::HTTP::NotImplemented</text>
<polyline fill="none" stroke="black" points="-0.268555,-48.8 138.269,-48.8 "/>
<text text-anchor="middle" x="69" y="-35.8" font-family="Helvetica,sans-Serif" font-size="9.00"> </text>
<polyline fill="none" stroke="black" points="-0.268555,-30 138.269,-30 "/>
<text text-anchor="start" x="7.73145" y="-17" font-family="Helvetica,sans-Serif" font-size="9.00">+ what()</text>
<text text-anchor="start" x="7.73145" y="-6.2" font-family="Helvetica,sans-Serif" font-size="9.00">+ code()</text>
</g>
<!-- Node2 -->
<g id="node2" class="node"><title>Node2</title>
<polygon fill="white" stroke="#bfbfbf" points="22.7478,-104.8 22.7478,-161.2 115.252,-161.2 115.252,-104.8 22.7478,-104.8"/>
<text text-anchor="middle" x="69" y="-148.2" font-family="Helvetica,sans-Serif" font-size="9.00">REST::HTTP::Error</text>
<polyline fill="none" stroke="#bfbfbf" points="22.7478,-142.4 115.252,-142.4 "/>
<text text-anchor="middle" x="69" y="-129.4" font-family="Helvetica,sans-Serif" font-size="9.00"> </text>
<polyline fill="none" stroke="#bfbfbf" points="22.7478,-123.6 115.252,-123.6 "/>
<text text-anchor="middle" x="69" y="-110.6" font-family="Helvetica,sans-Serif" font-size="9.00"> </text>
</g>
<!-- Node2&#45;&gt;Node1 -->
<g id="edge1" class="edge"><title>Node2&#45;&gt;Node1</title>
<path fill="none" stroke="midnightblue" d="M69,-94.687C69,-85.8706 69,-76.5326 69,-67.9265"/>
<polygon fill="none" stroke="midnightblue" points="65.5001,-94.7219 69,-104.722 72.5001,-94.722 65.5001,-94.7219"/>
</g>
<!-- Node3 -->
<g id="node3" class="node"><title>Node3</title>
<polygon fill="white" stroke="#bfbfbf" points="27.2346,-198.4 27.2346,-265.6 110.765,-265.6 110.765,-198.4 27.2346,-198.4"/>
<text text-anchor="middle" x="69" y="-252.6" font-family="Helvetica,sans-Serif" font-size="9.00">REST::Exception</text>
<polyline fill="none" stroke="#bfbfbf" points="27.2346,-246.8 110.765,-246.8 "/>
<text text-anchor="middle" x="69" y="-233.8" font-family="Helvetica,sans-Serif" font-size="9.00"> </text>
<polyline fill="none" stroke="#bfbfbf" points="27.2346,-228 110.765,-228 "/>
<text text-anchor="start" x="35.2346" y="-215" font-family="Helvetica,sans-Serif" font-size="9.00">+ what()</text>
<text text-anchor="start" x="35.2346" y="-204.2" font-family="Helvetica,sans-Serif" font-size="9.00">+ code()</text>
</g>
<!-- Node3&#45;&gt;Node2 -->
<g id="edge2" class="edge"><title>Node3&#45;&gt;Node2</title>
<path fill="none" stroke="midnightblue" d="M69,-188.08C69,-178.991 69,-169.638 69,-161.318"/>
<polygon fill="none" stroke="midnightblue" points="65.5001,-188.16 69,-198.16 72.5001,-188.16 65.5001,-188.16"/>
</g>
<!-- Node4 -->
<g id="node4" class="node"><title>Node4</title>
<g id="a_node4"><a xlink:title="STL class. ">
<polygon fill="white" stroke="#bfbfbf" points="33.2332,-302.8 33.2332,-359.2 104.767,-359.2 104.767,-302.8 33.2332,-302.8"/>
<text text-anchor="middle" x="69" y="-346.2" font-family="Helvetica,sans-Serif" font-size="9.00">std::exception</text>
<polyline fill="none" stroke="#bfbfbf" points="33.2332,-340.4 104.767,-340.4 "/>
<text text-anchor="middle" x="69" y="-327.4" font-family="Helvetica,sans-Serif" font-size="9.00"> </text>
<polyline fill="none" stroke="#bfbfbf" points="33.2332,-321.6 104.767,-321.6 "/>
<text text-anchor="middle" x="69" y="-308.6" font-family="Helvetica,sans-Serif" font-size="9.00"> </text>
</a>
</g>
</g>
<!-- Node4&#45;&gt;Node3 -->
<g id="edge3" class="edge"><title>Node4&#45;&gt;Node3</title>
<path fill="none" stroke="midnightblue" d="M69,-292.687C69,-283.871 69,-274.533 69,-265.926"/>
<polygon fill="none" stroke="midnightblue" points="65.5001,-292.722 69,-302.722 72.5001,-292.722 65.5001,-292.722"/>
</g>
</g>
</svg>
