<?xml version="1.0" encoding="UTF-8" standalone="no"?>
<!DOCTYPE svg PUBLIC "-//W3C//DTD SVG 1.1//EN"
 "http://www.w3.org/Graphics/SVG/1.1/DTD/svg11.dtd">
<!-- Generated by graphviz version 2.34.0 (20131023.0619)
 -->
<!-- Title: REST::Resource Pages: 1 -->
<svg width="120pt" height="312pt"
 viewBox="0.00 0.00 120.00 312.00" xmlns="http://www.w3.org/2000/svg" xmlns:xlink="http://www.w3.org/1999/xlink">
<g id="graph0" class="graph" transform="scale(1 1) rotate(0) translate(4 308)">
<title>REST::Resource</title>
<polygon fill="white" stroke="white" points="-4,4 -4,-308 116,-308 116,4 -4,4"/>
<!-- Node1 -->
<g id="node1" class="node"><title>Node1</title>
<polygon fill="#bfbfbf" stroke="black" points="14.7378,-0.8 14.7378,-111.2 97.2622,-111.2 97.2622,-0.8 14.7378,-0.8"/>
<text text-anchor="middle" x="56" y="-98.2" font-family="Helvetica,sans-Serif" font-size="9.00">REST::Resource</text>
<polyline fill="none" stroke="black" points="14.7378,-92.4 97.2622,-92.4 "/>
<text text-anchor="middle" x="56" y="-79.4" font-family="Helvetica,sans-Serif" font-size="9.00"> </text>
<polyline fill="none" stroke="black" points="14.7378,-73.6 97.2622,-73.6 "/>
<text text-anchor="start" x="22.7378" y="-60.6" font-family="Helvetica,sans-Serif" font-size="9.00">+ create()</text>
<text text-anchor="start" x="22.7378" y="-49.8" font-family="Helvetica,sans-Serif" font-size="9.00">+ read()</text>
<text text-anchor="start" x="22.7378" y="-39" font-family="Helvetica,sans-Serif" font-size="9.00">+ update()</text>
<text text-anchor="start" x="22.7378" y="-28.2" font-family="Helvetica,sans-Serif" font-size="9.00">+ destroy()</text>
<text text-anchor="start" x="22.7378" y="-17.4" font-family="Helvetica,sans-Serif" font-size="9.00">+ ~Resource()</text>
<text text-anchor="start" x="22.7378" y="-6.6" font-family="Helvetica,sans-Serif" font-size="9.00"># make_action()</text>
</g>
<!-- Node2 -->
<g id="node2" class="node"><title>Node2</title>
<g id="a_node2"><a xlink:href="class_r_e_s_t_1_1_service.html" target="_top" xlink:title="{REST::Service\n|+ response\l+ request\l+ params\l# session\l|+ Service()\l+ ensure_session()\l+ ensure_authorization()\l# make_action()\l# before()\l# after()\l# method()\l}">
<polygon fill="white" stroke="black" points="-0.904541,-149.2 -0.904541,-302.8 112.905,-302.8 112.905,-149.2 -0.904541,-149.2"/>
<text text-anchor="middle" x="56" y="-289.8" font-family="Helvetica,sans-Serif" font-size="9.00">REST::Service</text>
<polyline fill="none" stroke="black" points="-0.904541,-284 112.905,-284 "/>
<text text-anchor="start" x="7.09546" y="-271" font-family="Helvetica,sans-Serif" font-size="9.00">+ response</text>
<text text-anchor="start" x="7.09546" y="-260.2" font-family="Helvetica,sans-Serif" font-size="9.00">+ request</text>
<text text-anchor="start" x="7.09546" y="-249.4" font-family="Helvetica,sans-Serif" font-size="9.00">+ params</text>
<text text-anchor="start" x="7.09546" y="-238.6" font-family="Helvetica,sans-Serif" font-size="9.00"># session</text>
<polyline fill="none" stroke="black" points="-0.904541,-232.8 112.905,-232.8 "/>
<text text-anchor="start" x="7.09546" y="-219.8" font-family="Helvetica,sans-Serif" font-size="9.00">+ Service()</text>
<text text-anchor="start" x="7.09546" y="-209" font-family="Helvetica,sans-Serif" font-size="9.00">+ ensure_session()</text>
<text text-anchor="start" x="7.09546" y="-198.2" font-family="Helvetica,sans-Serif" font-size="9.00">+ ensure_authorization()</text>
<text text-anchor="start" x="7.09546" y="-187.4" font-family="Helvetica,sans-Serif" font-size="9.00"># make_action()</text>
<text text-anchor="start" x="7.09546" y="-176.6" font-family="Helvetica,sans-Serif" font-size="9.00"># before()</text>
<text text-anchor="start" x="7.09546" y="-165.8" font-family="Helvetica,sans-Serif" font-size="9.00"># after()</text>
<text text-anchor="start" x="7.09546" y="-155" font-family="Helvetica,sans-Serif" font-size="9.00"># method()</text>
</a>
</g>
</g>
<!-- Node2&#45;&gt;Node1 -->
<g id="edge1" class="edge"><title>Node2&#45;&gt;Node1</title>
<path fill="none" stroke="midnightblue" d="M56,-138.735C56,-129.393 56,-120.088 56,-111.284"/>
<polygon fill="none" stroke="midnightblue" points="52.5001,-138.865 56,-148.865 59.5001,-138.865 52.5001,-138.865"/>
</g>
</g>
</svg>
