<?xml version="1.0" encoding="UTF-8" standalone="no"?>
<!DOCTYPE svg PUBLIC "-//W3C//DTD SVG 1.1//EN"
 "http://www.w3.org/Graphics/SVG/1.1/DTD/svg11.dtd">
<!-- Generated by graphviz version 2.34.0 (20131023.0619)
 -->
<!-- Title: REST::HTTP::NotFound Pages: 1 -->
<svg width="120pt" height="368pt"
 viewBox="0.00 0.00 120.00 368.00" xmlns="http://www.w3.org/2000/svg" xmlns:xlink="http://www.w3.org/1999/xlink">
<g id="graph0" class="graph" transform="scale(1 1) rotate(0) translate(4 364)">
<title>REST::HTTP::NotFound</title>
<polygon fill="white" stroke="white" points="-4,4 -4,-364 116,-364 116,4 -4,4"/>
<!-- Node1 -->
<g id="node1" class="node"><title>Node1</title>
<polygon fill="#bfbfbf" stroke="black" points="-0.0146484,-0.4 -0.0146484,-67.6 112.015,-67.6 112.015,-0.4 -0.0146484,-0.4"/>
<text text-anchor="middle" x="56" y="-54.6" font-family="Helvetica,sans-Serif" font-size="9.00">REST::HTTP::NotFound</text>
<polyline fill="none" stroke="black" points="-0.0146484,-48.8 112.015,-48.8 "/>
<text text-anchor="middle" x="56" y="-35.8" font-family="Helvetica,sans-Serif" font-size="9.00"> </text>
<polyline fill="none" stroke="black" points="-0.0146484,-30 112.015,-30 "/>
<text text-anchor="start" x="7.98535" y="-17" font-family="Helvetica,sans-Serif" font-size="9.00">+ what()</text>
<text text-anchor="start" x="7.98535" y="-6.2" font-family="Helvetica,sans-Serif" font-size="9.00">+ code()</text>
</g>
<!-- Node2 -->
<g id="node2" class="node"><title>Node2</title>
<polygon fill="white" stroke="#bfbfbf" points="9.7478,-104.8 9.7478,-161.2 102.252,-161.2 102.252,-104.8 9.7478,-104.8"/>
<text text-anchor="middle" x="56" y="-148.2" font-family="Helvetica,sans-Serif" font-size="9.00">REST::HTTP::Error</text>
<polyline fill="none" stroke="#bfbfbf" points="9.7478,-142.4 102.252,-142.4 "/>
<text text-anchor="middle" x="56" y="-129.4" font-family="Helvetica,sans-Serif" font-size="9.00"> </text>
<polyline fill="none" stroke="#bfbfbf" points="9.7478,-123.6 102.252,-123.6 "/>
<text text-anchor="middle" x="56" y="-110.6" font-family="Helvetica,sans-Serif" font-size="9.00"> </text>
</g>
<!-- Node2&#45;&gt;Node1 -->
<g id="edge1" class="edge"><title>Node2&#45;&gt;Node1</title>
<path fill="none" stroke="midnightblue" d="M56,-94.687C56,-85.8706 56,-76.5326 56,-67.9265"/>
<polygon fill="none" stroke="midnightblue" points="52.5001,-94.7219 56,-104.722 59.5001,-94.722 52.5001,-94.7219"/>
</g>
<!-- Node3 -->
<g id="node3" class="node"><title>Node3</title>
<polygon fill="white" stroke="#bfbfbf" points="14.2346,-198.4 14.2346,-265.6 97.7654,-265.6 97.7654,-198.4 14.2346,-198.4"/>
<text text-anchor="middle" x="56" y="-252.6" font-family="Helvetica,sans-Serif" font-size="9.00">REST::Exception</text>
<polyline fill="none" stroke="#bfbfbf" points="14.2346,-246.8 97.7654,-246.8 "/>
<text text-anchor="middle" x="56" y="-233.8" font-family="Helvetica,sans-Serif" font-size="9.00"> </text>
<polyline fill="none" stroke="#bfbfbf" points="14.2346,-228 97.7654,-228 "/>
<text text-anchor="start" x="22.2346" y="-215" font-family="Helvetica,sans-Serif" font-size="9.00">+ what()</text>
<text text-anchor="start" x="22.2346" y="-204.2" font-family="Helvetica,sans-Serif" font-size="9.00">+ code()</text>
</g>
<!-- Node3&#45;&gt;Node2 -->
<g id="edge2" class="edge"><title>Node3&#45;&gt;Node2</title>
<path fill="none" stroke="midnightblue" d="M56,-188.08C56,-178.991 56,-169.638 56,-161.318"/>
<polygon fill="none" stroke="midnightblue" points="52.5001,-188.16 56,-198.16 59.5001,-188.16 52.5001,-188.16"/>
</g>
<!-- Node4 -->
<g id="node4" class="node"><title>Node4</title>
<g id="a_node4"><a xlink:title="STL class. ">
<polygon fill="white" stroke="#bfbfbf" points="20.2332,-302.8 20.2332,-359.2 91.7668,-359.2 91.7668,-302.8 20.2332,-302.8"/>
<text text-anchor="middle" x="56" y="-346.2" font-family="Helvetica,sans-Serif" font-size="9.00">std::exception</text>
<polyline fill="none" stroke="#bfbfbf" points="20.2332,-340.4 91.7668,-340.4 "/>
<text text-anchor="middle" x="56" y="-327.4" font-family="Helvetica,sans-Serif" font-size="9.00"> </text>
<polyline fill="none" stroke="#bfbfbf" points="20.2332,-321.6 91.7668,-321.6 "/>
<text text-anchor="middle" x="56" y="-308.6" font-family="Helvetica,sans-Serif" font-size="9.00"> </text>
</a>
</g>
</g>
<!-- Node4&#45;&gt;Node3 -->
<g id="edge3" class="edge"><title>Node4&#45;&gt;Node3</title>
<path fill="none" stroke="midnightblue" d="M56,-292.687C56,-283.871 56,-274.533 56,-265.926"/>
<polygon fill="none" stroke="midnightblue" points="52.5001,-292.722 56,-302.722 59.5001,-292.722 52.5001,-292.722"/>
</g>
</g>
</svg>
