<?xml version="1.0" encoding="UTF-8" standalone="no"?>
<!DOCTYPE svg PUBLIC "-//W3C//DTD SVG 1.1//EN"
 "http://www.w3.org/Graphics/SVG/1.1/DTD/svg11.dtd">
<!-- Generated by graphviz version 2.34.0 (20131023.0619)
 -->
<!-- Title: REST::Service Pages: 1 -->
<svg width="120pt" height="302pt"
 viewBox="0.00 0.00 120.00 302.00" xmlns="http://www.w3.org/2000/svg" xmlns:xlink="http://www.w3.org/1999/xlink">
<g id="graph0" class="graph" transform="scale(1 1) rotate(0) translate(4 298)">
<title>REST::Service</title>
<polygon fill="white" stroke="white" points="-4,4 -4,-298 116,-298 116,4 -4,4"/>
<!-- Node1 -->
<g id="node1" class="node"><title>Node1</title>
<polygon fill="#bfbfbf" stroke="black" points="-0.904541,-139.2 -0.904541,-292.8 112.905,-292.8 112.905,-139.2 -0.904541,-139.2"/>
<text text-anchor="middle" x="56" y="-279.8" font-family="Helvetica,sans-Serif" font-size="9.00">REST::Service</text>
<polyline fill="none" stroke="black" points="-0.904541,-274 112.905,-274 "/>
<text text-anchor="start" x="7.09546" y="-261" font-family="Helvetica,sans-Serif" font-size="9.00">+ response</text>
<text text-anchor="start" x="7.09546" y="-250.2" font-family="Helvetica,sans-Serif" font-size="9.00">+ request</text>
<text text-anchor="start" x="7.09546" y="-239.4" font-family="Helvetica,sans-Serif" font-size="9.00"># session</text>
<polyline fill="none" stroke="black" points="-0.904541,-233.6 112.905,-233.6 "/>
<text text-anchor="start" x="7.09546" y="-220.6" font-family="Helvetica,sans-Serif" font-size="9.00">+ Service()</text>
<text text-anchor="start" x="7.09546" y="-209.8" font-family="Helvetica,sans-Serif" font-size="9.00">+ ~Service()</text>
<text text-anchor="start" x="7.09546" y="-199" font-family="Helvetica,sans-Serif" font-size="9.00">+ ensure_session()</text>
<text text-anchor="start" x="7.09546" y="-188.2" font-family="Helvetica,sans-Serif" font-size="9.00">+ ensure_authorization()</text>
<text text-anchor="start" x="7.09546" y="-177.4" font-family="Helvetica,sans-Serif" font-size="9.00"># make_action()</text>
<text text-anchor="start" x="7.09546" y="-166.6" font-family="Helvetica,sans-Serif" font-size="9.00"># before()</text>
<text text-anchor="start" x="7.09546" y="-155.8" font-family="Helvetica,sans-Serif" font-size="9.00"># after()</text>
<text text-anchor="start" x="7.09546" y="-145" font-family="Helvetica,sans-Serif" font-size="9.00"># method()</text>
</g>
<!-- Node2 -->
<g id="node2" class="node"><title>Node2</title>
<g id="a_node2"><a xlink:href="class_r_e_s_t_1_1_resource.html" target="_top" xlink:title="{REST::Resource\n||+ create()\l+ read()\l+ update()\l+ destroy()\l+ ~Resource()\l}">
<polygon fill="white" stroke="black" points="14.7378,-1.2 14.7378,-100.8 97.2622,-100.8 97.2622,-1.2 14.7378,-1.2"/>
<text text-anchor="middle" x="56" y="-87.8" font-family="Helvetica,sans-Serif" font-size="9.00">REST::Resource</text>
<polyline fill="none" stroke="black" points="14.7378,-82 97.2622,-82 "/>
<text text-anchor="middle" x="56" y="-69" font-family="Helvetica,sans-Serif" font-size="9.00"> </text>
<polyline fill="none" stroke="black" points="14.7378,-63.2 97.2622,-63.2 "/>
<text text-anchor="start" x="22.7378" y="-50.2" font-family="Helvetica,sans-Serif" font-size="9.00">+ create()</text>
<text text-anchor="start" x="22.7378" y="-39.4" font-family="Helvetica,sans-Serif" font-size="9.00">+ read()</text>
<text text-anchor="start" x="22.7378" y="-28.6" font-family="Helvetica,sans-Serif" font-size="9.00">+ update()</text>
<text text-anchor="start" x="22.7378" y="-17.8" font-family="Helvetica,sans-Serif" font-size="9.00">+ destroy()</text>
<text text-anchor="start" x="22.7378" y="-7" font-family="Helvetica,sans-Serif" font-size="9.00">+ ~Resource()</text>
</a>
</g>
</g>
<!-- Node1&#45;&gt;Node2 -->
<g id="edge1" class="edge"><title>Node1&#45;&gt;Node2</title>
<path fill="none" stroke="midnightblue" d="M56,-128.569C56,-119.196 56,-109.911 56,-101.211"/>
<polygon fill="none" stroke="midnightblue" points="52.5001,-128.75 56,-138.75 59.5001,-128.75 52.5001,-128.75"/>
</g>
</g>
</svg>
