<?xml version="1.0" encoding="UTF-8" standalone="no"?>
<!DOCTYPE svg PUBLIC "-//W3C//DTD SVG 1.1//EN"
 "http://www.w3.org/Graphics/SVG/1.1/DTD/svg11.dtd">
<!-- Generated by graphviz version 2.34.0 (20131023.0619)
 -->
<!-- Title: Graph Legend Pages: 1 -->
<svg width="477pt" height="164pt"
 viewBox="0.00 0.00 477.00 164.00" xmlns="http://www.w3.org/2000/svg" xmlns:xlink="http://www.w3.org/1999/xlink">
<g id="graph0" class="graph" transform="scale(1 1) rotate(0) translate(4 160)">
<title>Graph Legend</title>
<polygon fill="white" stroke="white" points="-4,4 -4,-160 473,-160 473,4 -4,4"/>
<!-- Node9 -->
<g id="node1" class="node"><title>Node9</title>
<polygon fill="#bfbfbf" stroke="black" points="273.268,-19.3011 222.732,-19.3011 222.732,-0.698947 273.268,-0.698947 273.268,-19.3011"/>
<text text-anchor="middle" x="248" y="-6.4" font-family="Helvetica,sans-Serif" font-size="9.00">Inherited</text>
</g>
<!-- Node10 -->
<g id="node2" class="node"><title>Node10</title>
<g id="a_node2"><a xlink:href="$classPublicBase.html" xlink:title="PublicBase">
<polygon fill="none" stroke="black" points="60.2697,-87.3011 -0.26967,-87.3011 -0.26967,-68.6989 60.2697,-68.6989 60.2697,-87.3011"/>
<text text-anchor="middle" x="30" y="-74.4" font-family="Helvetica,sans-Serif" font-size="9.00">PublicBase</text>
</a>
</g>
</g>
<!-- Node10&#45;&gt;Node9 -->
<g id="edge1" class="edge"><title>Node10&#45;&gt;Node9</title>
<path fill="none" stroke="midnightblue" d="M67.4246,-65.6696C111.757,-52.248 184.402,-30.2544 222.64,-18.6779"/>
<polygon fill="midnightblue" stroke="midnightblue" points="66.1666,-62.3935 57.6099,-68.6411 68.195,-69.0932 66.1666,-62.3935"/>
</g>
<!-- Node11 -->
<g id="node3" class="node"><title>Node11</title>
<g id="a_node3"><a xlink:href="$classTruncated.html" xlink:title="Truncated">
<polygon fill="none" stroke="red" points="58.1445,-155.301 1.85555,-155.301 1.85555,-136.699 58.1445,-136.699 58.1445,-155.301"/>
<text text-anchor="middle" x="30" y="-142.4" font-family="Helvetica,sans-Serif" font-size="9.00">Truncated</text>
</a>
</g>
</g>
<!-- Node11&#45;&gt;Node10 -->
<g id="edge2" class="edge"><title>Node11&#45;&gt;Node10</title>
<path fill="none" stroke="midnightblue" d="M30,-126.597C30,-113.797 30,-97.3287 30,-87.4995"/>
<polygon fill="midnightblue" stroke="midnightblue" points="26.5001,-126.641 30,-136.641 33.5001,-126.641 26.5001,-126.641"/>
</g>
<!-- Node13 -->
<g id="node4" class="node"><title>Node13</title>
<g id="a_node4"><a xlink:href="$classProtectedBase.html" xlink:title="ProtectedBase">
<polygon fill="none" stroke="black" points="153.277,-87.3011 78.723,-87.3011 78.723,-68.6989 153.277,-68.6989 153.277,-87.3011"/>
<text text-anchor="middle" x="116" y="-74.4" font-family="Helvetica,sans-Serif" font-size="9.00">ProtectedBase</text>
</a>
</g>
</g>
<!-- Node13&#45;&gt;Node9 -->
<g id="edge3" class="edge"><title>Node13&#45;&gt;Node9</title>
<path fill="none" stroke="darkgreen" d="M141.748,-64.126C168.12,-50.94 208.364,-30.818 231.001,-19.4995"/>
<polygon fill="darkgreen" stroke="darkgreen" points="140.097,-61.0384 132.718,-68.6411 143.227,-67.2994 140.097,-61.0384"/>
</g>
<!-- Node14 -->
<g id="node5" class="node"><title>Node14</title>
<g id="a_node5"><a xlink:href="$classPrivateBase.html" xlink:title="PrivateBase">
<polygon fill="none" stroke="black" points="235.896,-87.3011 172.104,-87.3011 172.104,-68.6989 235.896,-68.6989 235.896,-87.3011"/>
<text text-anchor="middle" x="204" y="-74.4" font-family="Helvetica,sans-Serif" font-size="9.00">PrivateBase</text>
</a>
</g>
</g>
<!-- Node14&#45;&gt;Node9 -->
<g id="edge4" class="edge"><title>Node14&#45;&gt;Node9</title>
<path fill="none" stroke="#8b1a1a" d="M215.247,-60.1294C223.907,-47.1388 235.516,-29.7259 242.334,-19.4995"/>
<polygon fill="#8b1a1a" stroke="#8b1a1a" points="212.207,-58.3791 209.573,-68.6411 218.032,-62.262 212.207,-58.3791"/>
</g>
<!-- Node15 -->
<g id="node6" class="node"><title>Node15</title>
<polygon fill="none" stroke="#bfbfbf" points="331.28,-87.3011 254.72,-87.3011 254.72,-68.6989 331.28,-68.6989 331.28,-87.3011"/>
<text text-anchor="middle" x="293" y="-74.4" font-family="Helvetica,sans-Serif" font-size="9.00">Undocumented</text>
</g>
<!-- Node15&#45;&gt;Node9 -->
<g id="edge5" class="edge"><title>Node15&#45;&gt;Node9</title>
<path fill="none" stroke="midnightblue" d="M281.497,-60.1294C272.64,-47.1388 260.768,-29.7259 253.795,-19.4995"/>
<polygon fill="midnightblue" stroke="midnightblue" points="278.776,-62.3505 287.301,-68.6411 284.559,-58.4071 278.776,-62.3505"/>
</g>
<!-- Node16 -->
<g id="node7" class="node"><title>Node16</title>
<g id="a_node7"><a xlink:href="$classTempl.html" xlink:title="Templ&lt; int &gt;">
<polygon fill="none" stroke="black" points="414.269,-87.3011 349.731,-87.3011 349.731,-68.6989 414.269,-68.6989 414.269,-87.3011"/>
<text text-anchor="middle" x="382" y="-74.4" font-family="Helvetica,sans-Serif" font-size="9.00">Templ&lt; int &gt;</text>
</a>
</g>
</g>
<!-- Node16&#45;&gt;Node9 -->
<g id="edge6" class="edge"><title>Node16&#45;&gt;Node9</title>
<path fill="none" stroke="midnightblue" d="M355.862,-64.126C329.09,-50.94 288.237,-30.818 265.257,-19.4995"/>
<polygon fill="midnightblue" stroke="midnightblue" points="354.511,-67.3623 365.029,-68.6411 357.604,-61.0827 354.511,-67.3623"/>
</g>
<!-- Node17 -->
<g id="node8" class="node"><title>Node17</title>
<g id="a_node8"><a xlink:href="$classTempl.html" xlink:title="Templ&lt; T &gt;">
<polygon fill="none" stroke="black" points="412.027,-155.301 351.973,-155.301 351.973,-136.699 412.027,-136.699 412.027,-155.301"/>
<text text-anchor="middle" x="382" y="-142.4" font-family="Helvetica,sans-Serif" font-size="9.00">Templ&lt; T &gt;</text>
</a>
</g>
</g>
<!-- Node17&#45;&gt;Node16 -->
<g id="edge7" class="edge"><title>Node17&#45;&gt;Node16</title>
<path fill="none" stroke="orange" stroke-dasharray="5,2" d="M382,-126.597C382,-113.797 382,-97.3287 382,-87.4995"/>
<polygon fill="orange" stroke="orange" points="378.5,-126.641 382,-136.641 385.5,-126.641 378.5,-126.641"/>
<text text-anchor="middle" x="394.509" y="-108.4" font-family="Helvetica,sans-Serif" font-size="9.00">&lt; int &gt;</text>
</g>
<!-- Node18 -->
<g id="node9" class="node"><title>Node18</title>
<g id="a_node9"><a xlink:href="$classUsed.html" xlink:title="Used">
<polygon fill="none" stroke="black" points="469.258,-87.3011 432.742,-87.3011 432.742,-68.6989 469.258,-68.6989 469.258,-87.3011"/>
<text text-anchor="middle" x="451" y="-74.4" font-family="Helvetica,sans-Serif" font-size="9.00">Used</text>
</a>
</g>
</g>
<!-- Node18&#45;&gt;Node9 -->
<g id="edge8" class="edge"><title>Node18&#45;&gt;Node9</title>
<path fill="none" stroke="#9a32cd" stroke-dasharray="5,2" d="M423.06,-67.9162C383.45,-55.0379 311.55,-31.6617 273.385,-19.2533"/>
<polygon fill="#9a32cd" stroke="#9a32cd" points="422.035,-71.263 432.627,-71.0265 424.199,-64.606 422.035,-71.263"/>
<text text-anchor="middle" x="395.261" y="-40.4" font-family="Helvetica,sans-Serif" font-size="9.00">m_usedClass</text>
</g>
</g>
</svg>
