<?xml version="1.0" encoding="UTF-8" standalone="no"?>
<!DOCTYPE svg PUBLIC "-//W3C//DTD SVG 1.1//EN"
 "http://www.w3.org/Graphics/SVG/1.1/DTD/svg11.dtd">
<!-- Generated by graphviz version 2.34.0 (20131023.0619)
 -->
<!-- Title: Graphical Class Hierarchy Pages: 1 -->
<svg width="286pt" height="140pt"
 viewBox="0.00 0.00 286.00 140.00" xmlns="http://www.w3.org/2000/svg" xmlns:xlink="http://www.w3.org/1999/xlink">
<g id="graph0" class="graph" transform="scale(1 1) rotate(0) translate(4 136)">
<title>Graphical Class Hierarchy</title>
<polygon fill="white" stroke="white" points="-4,4 -4,-136 282,-136 282,4 -4,4"/>
<!-- Node1 -->
<g id="node1" class="node"><title>Node1</title>
<polygon fill="white" stroke="#bfbfbf" points="0.747803,-56.6 0.747803,-75.4 93.2522,-75.4 93.2522,-56.6 0.747803,-56.6"/>
<text text-anchor="middle" x="47" y="-62.4" font-family="Helvetica,sans-Serif" font-size="9.00">REST::HTTP::Error</text>
</g>
<!-- Node2 -->
<g id="node2" class="node"><title>Node2</title>
<g id="a_node2"><a xlink:href="class_r_e_s_t_1_1_h_t_t_p_1_1_method_not_allowed.html" target="_top" xlink:title="REST::HTTP::MethodNotAllowed">
<polygon fill="white" stroke="black" points="129.977,-113.6 129.977,-132.4 278.023,-132.4 278.023,-113.6 129.977,-113.6"/>
<text text-anchor="middle" x="204" y="-119.4" font-family="Helvetica,sans-Serif" font-size="9.00">REST::HTTP::MethodNotAllowed</text>
</a>
</g>
</g>
<!-- Node1&#45;&gt;Node2 -->
<g id="edge1" class="edge"><title>Node1&#45;&gt;Node2</title>
<path fill="none" stroke="midnightblue" d="M75.9941,-79.9459C91.636,-87.4025 111.625,-96.3832 130,-103 140.88,-106.918 152.906,-110.505 164.004,-113.527"/>
<polygon fill="midnightblue" stroke="midnightblue" points="77.3963,-76.7363 66.8698,-75.5349 74.3496,-83.0385 77.3963,-76.7363"/>
</g>
<!-- Node3 -->
<g id="node3" class="node"><title>Node3</title>
<g id="a_node3"><a xlink:href="class_r_e_s_t_1_1_h_t_t_p_1_1_not_authorized.html" target="_top" xlink:title="REST::HTTP::NotAuthorized">
<polygon fill="white" stroke="black" points="139.231,-75.6 139.231,-94.4 268.769,-94.4 268.769,-75.6 139.231,-75.6"/>
<text text-anchor="middle" x="204" y="-81.4" font-family="Helvetica,sans-Serif" font-size="9.00">REST::HTTP::NotAuthorized</text>
</a>
</g>
</g>
<!-- Node1&#45;&gt;Node3 -->
<g id="edge2" class="edge"><title>Node1&#45;&gt;Node3</title>
<path fill="none" stroke="midnightblue" d="M103.903,-72.8526C115.29,-74.2485 127.354,-75.7272 138.998,-77.1546"/>
<polygon fill="midnightblue" stroke="midnightblue" points="104.018,-69.3406 93.6668,-71.5979 103.167,-76.2886 104.018,-69.3406"/>
</g>
<!-- Node4 -->
<g id="node4" class="node"><title>Node4</title>
<g id="a_node4"><a xlink:href="class_r_e_s_t_1_1_h_t_t_p_1_1_not_found.html" target="_top" xlink:title="REST::HTTP::NotFound">
<polygon fill="white" stroke="black" points="147.985,-37.6 147.985,-56.4 260.015,-56.4 260.015,-37.6 147.985,-37.6"/>
<text text-anchor="middle" x="204" y="-43.4" font-family="Helvetica,sans-Serif" font-size="9.00">REST::HTTP::NotFound</text>
</a>
</g>
</g>
<!-- Node1&#45;&gt;Node4 -->
<g id="edge3" class="edge"><title>Node1&#45;&gt;Node4</title>
<path fill="none" stroke="midnightblue" d="M103.859,-59.1527C118.159,-57.3999 133.527,-55.516 147.793,-53.7672"/>
<polygon fill="midnightblue" stroke="midnightblue" points="103.167,-55.7114 93.6668,-60.4021 104.018,-62.6594 103.167,-55.7114"/>
</g>
<!-- Node5 -->
<g id="node5" class="node"><title>Node5</title>
<g id="a_node5"><a xlink:href="class_r_e_s_t_1_1_h_t_t_p_1_1_not_implemented.html" target="_top" xlink:title="REST::HTTP::NotImplemented">
<polygon fill="white" stroke="black" points="134.731,0.4 134.731,-18.4 273.269,-18.4 273.269,0.4 134.731,0.4"/>
<text text-anchor="middle" x="204" y="-5.4" font-family="Helvetica,sans-Serif" font-size="9.00">REST::HTTP::NotImplemented</text>
</a>
</g>
</g>
<!-- Node1&#45;&gt;Node5 -->
<g id="edge4" class="edge"><title>Node1&#45;&gt;Node5</title>
<path fill="none" stroke="midnightblue" d="M74.9946,-51.9983C90.745,-44.2093 111.164,-34.754 130,-28 139.985,-24.4196 150.96,-21.2028 161.298,-18.4779"/>
<polygon fill="midnightblue" stroke="midnightblue" points="73.2117,-48.9771 65.847,-56.5937 76.354,-55.2322 73.2117,-48.9771"/>
</g>
</g>
</svg>
